<?xml version="1.0" encoding="utf-8"?>
<!-- Generator: Adobe Illustrator 13.0.0, SVG Export Plug-In . SVG Version: 6.00 Build 14948)  -->
<svg version="1.2" baseProfile="tiny" id="Layer_1" xmlns:svg="http://www.w3.org/2000/svg"
	 xmlns="http://www.w3.org/2000/svg" xmlns:xlink="http://www.w3.org/1999/xlink" x="0px" y="0px" width="170.078px"
	 height="45.355px" viewBox="0 0 170.078 45.355" xml:space="preserve">
<g>
	<g id="board">
		<rect id="boardoutline" x="0.288" y="0.288" fill="none" stroke="#000000" stroke-width="0.5" width="169.503" height="44.778"/>
	</g>
</g>
<g>
	<g transform="translate(120.235,9.26888)">
		<g id="copper0">
			<circle id="connector0pad" fill="none" stroke="#000000" stroke-width="1.44" cx="20.846" cy="15.602" r="1.98"/>
			<circle id="connector1pad" fill="none" stroke="#000000" stroke-width="1.44" cx="2.421" cy="15.602" r="1.98"/>
			<circle id="connector2pad" fill="none" stroke="#000000" stroke-width="1.44" cx="20.846" cy="2.846" r="1.98"/>
			<circle id="connector3pad" fill="none" stroke="#000000" stroke-width="1.44" cx="2.421" cy="2.846" r="1.98"/>
		</g>
	</g>
</g>
<g>
	<g transform="translate(62.6352,9.26888)">
		<g id="copper0_1_">
			<circle id="connector0pad_1_" fill="none" stroke="#000000" stroke-width="1.44" cx="20.846" cy="15.602" r="1.98"/>
			<circle id="connector1pad_1_" fill="none" stroke="#000000" stroke-width="1.44" cx="2.421" cy="15.602" r="1.98"/>
			<circle id="connector2pad_1_" fill="none" stroke="#000000" stroke-width="1.44" cx="20.846" cy="2.846" r="1.98"/>
			<circle id="connector3pad_1_" fill="none" stroke="#000000" stroke-width="1.44" cx="2.421" cy="2.846" r="1.98"/>
		</g>
	</g>
</g>
<g>
	<g transform="translate(5.0352,9.26888)">
		<g id="copper0_2_">
			<circle id="connector0pad_2_" fill="none" stroke="#000000" stroke-width="1.44" cx="20.846" cy="15.602" r="1.98"/>
			<circle id="connector1pad_2_" fill="none" stroke="#000000" stroke-width="1.44" cx="2.421" cy="15.602" r="1.98"/>
			<circle id="connector2pad_2_" fill="none" stroke="#000000" stroke-width="1.44" cx="20.846" cy="2.846" r="1.98"/>
			<circle id="connector3pad_2_" fill="none" stroke="#000000" stroke-width="1.44" cx="2.421" cy="2.846" r="1.98"/>
		</g>
	</g>
</g>
<g>
	<g transform="translate(108.976,18.595)">
		<g transform="matrix(0,-1,1,0,0,0)">
			<g id="copper0_3_">
				<g id="copper1">
					<circle id="connector0pin" fill="none" stroke="#000000" stroke-width="1.44" cx="2.88" cy="2.88" r="1.8"/>
					<circle id="connector1pin" fill="none" stroke="#000000" stroke-width="1.44" cx="10.093" cy="2.88" r="1.8"/>
				</g>
			</g>
		</g>
	</g>
</g>
<g>
	<g transform="translate(90.976,18.595)">
		<g transform="matrix(0,-1,1,0,0,0)">
			<g id="copper0_4_">
				<g id="copper1_1_">
					<circle id="connector0pin_1_" fill="none" stroke="#000000" stroke-width="1.44" cx="2.88" cy="2.88" r="1.8"/>
					<circle id="connector1pin_1_" fill="none" stroke="#000000" stroke-width="1.44" cx="10.093" cy="2.88" r="1.8"/>
				</g>
			</g>
		</g>
	</g>
</g>
<g>
	<g transform="translate(36.976,22.195)">
		<g transform="matrix(0,-1,1,0,0,0)">
			<g id="copper0_5_">
				<g id="copper1_2_">
					<circle id="connector0pin_2_" fill="none" stroke="#000000" stroke-width="1.44" cx="2.88" cy="2.88" r="1.8"/>
					<circle id="connector1pin_2_" fill="none" stroke="#000000" stroke-width="1.44" cx="10.093" cy="2.88" r="1.8"/>
				</g>
			</g>
		</g>
	</g>
</g>
<g>
	<g transform="translate(101.956,36.415)">
		<g transform="matrix(0,-1,1,0,0,0)">
			<g id="copper0_6_">
				<g id="copper1_3_">
					<circle id="connector0pin_3_" fill="none" stroke="#000000" stroke-width="1.44" cx="2.701" cy="2.7" r="1.98"/>
					<circle id="connector1pin_3_" fill="none" stroke="#000000" stroke-width="1.44" cx="24.3" cy="2.7" r="1.98"/>
				</g>
			</g>
		</g>
	</g>
</g>
<g>
	<g transform="translate(47.956,36.415)">
		<g transform="matrix(0,-1,1,0,0,0)">
			<g id="copper0_7_">
				<g id="copper1_4_">
					<circle id="connector0pin_4_" fill="none" stroke="#000000" stroke-width="1.44" cx="2.701" cy="2.7" r="1.98"/>
					<circle id="connector1pin_4_" fill="none" stroke="#000000" stroke-width="1.44" cx="24.3" cy="2.7" r="1.98"/>
				</g>
			</g>
		</g>
	</g>
</g>
<g>
	<g transform="translate(31.756,36.415)">
		<g transform="matrix(-1,0,0,-1,0,0)">
			<g id="copper0_8_">
				<g id="copper1_5_">
					<circle id="connector0pin_5_" fill="none" stroke="#000000" stroke-width="1.44" cx="2.7" cy="2.7" r="1.98"/>
					<circle id="connector1pin_5_" fill="none" stroke="#000000" stroke-width="1.44" cx="24.3" cy="2.7" r="1.98"/>
				</g>
			</g>
		</g>
	</g>
</g>
<g>
	<g transform="translate(163.696,38.755)">
		<g transform="matrix(-1,0,0,-1,0,0)">
			<g id="copper0_10_">
				<g transform="matrix(-1, 0, 0, 1, 10.08, 0)">
					<g>
						<g>
							<g>
								<g id="copper0_9_">
									<circle id="connector0pin_6_" fill="none" stroke="#000000" stroke-width="1.44" cx="5.04" cy="5.04" r="2.088"/>
									<circle id="connector1pin_6_" fill="none" stroke="#000000" stroke-width="1.44" cx="5.04" cy="12.24" r="2.088"/>
									<circle id="connector2pin" fill="none" stroke="#000000" stroke-width="1.44" cx="5.04" cy="19.44" r="2.088"/>
									<circle id="connector3pin" fill="none" stroke="#000000" stroke-width="1.44" cx="5.04" cy="26.64" r="2.088"/>
									<circle id="connector4pin" fill="none" stroke="#000000" stroke-width="1.44" cx="5.04" cy="33.84" r="2.088"/>
								</g>
							</g>
							<g>
								<circle id="connector0pin_7_" fill="none" stroke="#000000" stroke-width="1.44" cx="5.04" cy="5.04" r="2.088"/>
								<circle id="connector1pin_7_" fill="none" stroke="#000000" stroke-width="1.44" cx="5.04" cy="12.24" r="2.088"/>
								<circle id="connector2pin_1_" fill="none" stroke="#000000" stroke-width="1.44" cx="5.04" cy="19.44" r="2.088"/>
								<circle id="connector3pin_1_" fill="none" stroke="#000000" stroke-width="1.44" cx="5.04" cy="26.64" r="2.088"/>
								<circle id="connector4pin_1_" fill="none" stroke="#000000" stroke-width="1.44" cx="5.04" cy="33.84" r="2.088"/>
							</g>
						</g>
					</g>
				</g>
			</g>
		</g>
	</g>
</g>
<g>
	<line fill="none" stroke="#000000" stroke-width="1.728" stroke-linecap="round" x1="83.354" y1="10.059" x2="83.031" y2="4.882"/>
</g>
<g>
	
		<line fill="none" stroke="#000000" stroke-width="1.728" stroke-linecap="round" x1="37.976" y1="12.104" x2="27.942" y2="12.113"/>
</g>
<g>
	
		<line fill="none" stroke="#000000" stroke-width="1.728" stroke-linecap="round" x1="14.708" y1="40.941" x2="162.224" y2="40.941"/>
</g>
<g>
	
		<line fill="none" stroke="#000000" stroke-width="1.728" stroke-linecap="round" x1="162.224" y1="40.941" x2="165.847" y2="37.318"/>
</g>
<g>
	
		<line fill="none" stroke="#000000" stroke-width="1.728" stroke-linecap="round" x1="165.847" y1="37.318" x2="165.847" y2="15.751"/>
</g>
<g>
	
		<line fill="none" stroke="#000000" stroke-width="1.728" stroke-linecap="round" x1="165.847" y1="15.751" x2="162.224" y2="12.128"/>
</g>
<g>
	
		<line fill="none" stroke="#000000" stroke-width="1.728" stroke-linecap="round" x1="162.224" y1="12.128" x2="160.824" y2="12.123"/>
</g>
<g>
	<line fill="none" stroke="#000000" stroke-width="1.728" stroke-linecap="round" x1="8.915" y1="35.169" x2="14.708" y2="40.941"/>
</g>
<g>
	<line fill="none" stroke="#000000" stroke-width="1.728" stroke-linecap="round" x1="7.456" y1="31.656" x2="7.456" y2="26.931"/>
</g>
<g>
	<line fill="none" stroke="#000000" stroke-width="1.728" stroke-linecap="round" x1="61.465" y1="26.449" x2="63.17" y2="25.7"/>
</g>
<g>
	
		<line fill="none" stroke="#000000" stroke-width="1.728" stroke-linecap="round" x1="57.842" y1="26.449" x2="61.465" y2="26.449"/>
</g>
<g>
	
		<line fill="none" stroke="#000000" stroke-width="1.728" stroke-linecap="round" x1="50.595" y1="19.375" x2="57.842" y2="26.449"/>
</g>
<g>
	
		<line fill="none" stroke="#000000" stroke-width="1.728" stroke-linecap="round" x1="50.639" y1="14.175" x2="50.595" y2="19.375"/>
</g>
<g>
	
		<line fill="none" stroke="#000000" stroke-width="1.728" stroke-linecap="round" x1="32.652" y1="19.375" x2="37.976" y2="19.331"/>
</g>
<g>
	
		<line fill="none" stroke="#000000" stroke-width="1.728" stroke-linecap="round" x1="27.481" y1="23.573" x2="32.652" y2="19.375"/>
</g>
<g>
	
		<line fill="none" stroke="#000000" stroke-width="1.728" stroke-linecap="round" x1="111.844" y1="26.449" x2="115.467" y2="30.072"/>
</g>
<g>
	
		<line fill="none" stroke="#000000" stroke-width="1.728" stroke-linecap="round" x1="129.787" y1="26.449" x2="129.787" y2="22.998"/>
</g>
<g>
	
		<line fill="none" stroke="#000000" stroke-width="1.728" stroke-linecap="round" x1="133.41" y1="19.375" x2="156.488" y2="19.32"/>
</g>
<g>
	
		<line fill="none" stroke="#000000" stroke-width="1.728" stroke-linecap="round" x1="129.787" y1="22.998" x2="133.41" y2="19.375"/>
</g>
<g>
	
		<line fill="none" stroke="#000000" stroke-width="1.728" stroke-linecap="round" x1="126.337" y1="30.072" x2="129.787" y2="26.449"/>
</g>
<g>
	
		<line fill="none" stroke="#000000" stroke-width="1.728" stroke-linecap="round" x1="115.467" y1="30.072" x2="126.337" y2="30.072"/>
</g>
<g>
	
		<line fill="none" stroke="#000000" stroke-width="1.728" stroke-linecap="round" x1="93.901" y1="26.449" x2="111.844" y2="26.449"/>
</g>
<g>
	
		<line fill="none" stroke="#000000" stroke-width="1.728" stroke-linecap="round" x1="93.864" y1="17.595" x2="93.901" y2="26.449"/>
</g>
<g>
	
		<line fill="none" stroke="#000000" stroke-width="1.728" stroke-linecap="round" x1="120.702" y1="11.461" x2="113.639" y2="9.098"/>
</g>
<g>
	
		<line fill="none" stroke="#000000" stroke-width="1.728" stroke-linecap="round" x1="147.903" y1="4.882" x2="142.495" y2="10.616"/>
</g>
<g>
	
		<line fill="none" stroke="#000000" stroke-width="1.728" stroke-linecap="round" x1="156.488" y1="4.908" x2="147.904" y2="4.882"/>
</g>
<g>
	
		<line fill="none" stroke="#000000" stroke-width="1.728" stroke-linecap="round" x1="31.116" y1="33.714" x2="48.596" y2="33.714"/>
</g>
<g>
	
		<line fill="none" stroke="#000000" stroke-width="1.728" stroke-linecap="round" x1="100.974" y1="37.318" x2="103.184" y2="35.156"/>
</g>
<g>
	
		<line fill="none" stroke="#000000" stroke-width="1.728" stroke-linecap="round" x1="54.218" y1="37.318" x2="100.975" y2="37.318"/>
</g>
<g>
	
		<line fill="none" stroke="#000000" stroke-width="1.728" stroke-linecap="round" x1="52.105" y1="35.179" x2="54.218" y2="37.318"/>
</g>
<g>
	
		<line fill="none" stroke="#000000" stroke-width="1.728" stroke-linecap="round" x1="108.221" y1="15.751" x2="106.098" y2="13.586"/>
</g>
<g>
	
		<line fill="none" stroke="#000000" stroke-width="1.728" stroke-linecap="round" x1="109.976" y1="15.734" x2="108.221" y2="15.751"/>
</g>
<g>
	
		<line fill="none" stroke="#000000" stroke-width="1.728" stroke-linecap="round" x1="111.844" y1="19.375" x2="111.85" y2="17.595"/>
</g>
<g>
	
		<line fill="none" stroke="#000000" stroke-width="1.728" stroke-linecap="round" x1="120.82" y1="23.937" x2="111.844" y2="19.375"/>
</g>
<g>
	
		<line fill="none" stroke="#000000" stroke-width="1.728" stroke-linecap="round" x1="133.41" y1="33.695" x2="156.488" y2="33.713"/>
</g>
<g>
	
		<line fill="none" stroke="#000000" stroke-width="1.728" stroke-linecap="round" x1="129.787" y1="37.318" x2="133.41" y2="33.695"/>
</g>
<g>
	
		<line fill="none" stroke="#000000" stroke-width="1.728" stroke-linecap="round" x1="108.221" y1="37.318" x2="129.787" y2="37.318"/>
</g>
<g>
	
		<line fill="none" stroke="#000000" stroke-width="1.728" stroke-linecap="round" x1="106.105" y1="35.179" x2="108.221" y2="37.318"/>
</g>
<g>
	
		<line fill="none" stroke="#000000" stroke-width="1.728" stroke-linecap="round" x1="144.28" y1="26.449" x2="156.488" y2="26.505"/>
</g>
<g>
	
		<line fill="none" stroke="#000000" stroke-width="1.728" stroke-linecap="round" x1="142.929" y1="25.783" x2="144.28" y2="26.449"/>
</g>
<g>
	<line fill="none" stroke="#000000" stroke-width="1.728" stroke-linecap="round" x1="46.972" y1="4.882" x2="41.176" y2="10.763"/>
</g>
<g>
	<line fill="none" stroke="#000000" stroke-width="1.728" stroke-linecap="round" x1="65.088" y1="4.882" x2="46.972" y2="4.882"/>
</g>
<g>
	<line fill="none" stroke="#000000" stroke-width="1.728" stroke-linecap="round" x1="83.031" y1="4.882" x2="65.088" y2="4.882"/>
</g>
<g>
	<line fill="none" stroke="#000000" stroke-width="1.728" stroke-linecap="round" x1="65.088" y1="4.882" x2="65.066" y2="10.055"/>
</g>
<g>
	
		<line fill="none" stroke="#000000" stroke-width="1.728" stroke-linecap="round" x1="86.655" y1="26.449" x2="85.326" y2="25.789"/>
</g>
<g>
	
		<line fill="none" stroke="#000000" stroke-width="1.728" stroke-linecap="round" x1="93.901" y1="26.449" x2="86.655" y2="26.449"/>
</g>
<g>
	<line fill="none" stroke="#000000" stroke-width="1.728" stroke-linecap="round" x1="93.901" y1="4.882" x2="108.221" y2="4.882"/>
</g>
<g>
	
		<line fill="none" stroke="#000000" stroke-width="1.728" stroke-linecap="round" x1="108.221" y1="4.882" x2="110.524" y2="7.175"/>
</g>
<g>
	<line fill="none" stroke="#000000" stroke-width="1.728" stroke-linecap="round" x1="83.031" y1="4.882" x2="93.901" y2="4.882"/>
</g>
<g>
	<line fill="none" stroke="#000000" stroke-width="1.728" stroke-linecap="round" x1="93.901" y1="4.882" x2="93.879" y2="6.622"/>
</g>
<g>
	<g>
		<path fill="#FFFFFF" d="M69.522,25.282c0.039,1.914,0.228,4.23,0.767,5.799c0.161,0.471,0.447,1.248,0.82,1.367
			c0.196,0.061,0.617,0.039,0.983,0.055c1.844,0.074,3.801,0.102,5.168,0.109c1.162,0.006,2.501,0.068,2.872-0.684
			c0.475-0.969-0.689-1.248-1.312-1.449c0.387-1.545,0.327-3.369,0.327-5.225c0-1.779-0.225-3.628-0.438-5.141
			c0.776-0.125,1.803-0.508,1.396-1.449c-0.393-0.908-2.191-0.799-3.5-0.738c-1.834,0.086-3.956,0.104-5.523,0.191
			C70.083,19.976,69.467,22.453,69.522,25.282z"/>
		<path d="M71.081,18.118c1.568-0.086,3.689-0.105,5.523-0.191c1.309-0.061,3.107-0.169,3.5,0.738
			c0.408,0.941-0.618,1.325-1.395,1.449c0.213,1.511,0.438,3.361,0.438,5.141c0,1.855,0.06,3.68-0.327,5.223
			c0.624,0.205,1.787,0.482,1.311,1.449c-0.369,0.754-1.709,0.691-2.872,0.684c-1.367-0.008-3.324-0.033-5.168-0.109
			c-0.366-0.014-0.787,0.01-0.983-0.053c-0.373-0.119-0.659-0.896-0.821-1.369c-0.539-1.566-0.728-3.881-0.766-5.797
			C69.467,22.453,70.083,19.976,71.081,18.118z M74.745,32.147c1.336,0,2.633,0.127,3.827,0.053c0.476-0.029,1.22-0.119,1.286-0.572
			c0.072-0.492-0.832-0.689-1.313-0.74c-0.088-0.088-0.038,0.197-0.135,0.191c0.381-2.607,0.427-5.967,0.163-8.751
			c-0.091-0.969-0.329-1.893-0.218-2.788c0.021,0.156,0.098,0.129,0.218,0.136c0.419,0.028,1.183-0.311,1.205-0.656
			c0.03-0.503-0.842-0.723-1.313-0.766c-0.558-0.05-1.186,0-1.804,0.028c-1.847,0.081-3.856,0.011-5.579,0.055
			c-0.863,1.672-1.286,4.241-1.312,6.807c-0.027,2.641,0.196,5.254,1.148,6.973C72.063,32.09,73.374,32.147,74.745,32.147z"/>
		<path fill="#FFFFFF" d="M70.917,32.118c-0.952-1.721-1.177-4.332-1.149-6.973c0.028-2.568,0.449-5.137,1.313-6.809
			c1.722-0.045,3.73,0.026,5.577-0.055c0.619-0.027,1.246-0.077,1.805-0.027c0.471,0.042,1.343,0.263,1.312,0.766
			c-0.021,0.345-0.786,0.685-1.203,0.656c-0.12-0.008-0.199,0.02-0.218-0.136c-0.111,0.896,0.127,1.82,0.218,2.789
			c0.263,2.786,0.218,6.145-0.164,8.75c0.1,0.006,0.047-0.279,0.137-0.191c0.482,0.053,1.384,0.248,1.312,0.738
			c-0.066,0.453-0.811,0.545-1.285,0.574c-1.196,0.074-2.491-0.053-3.828-0.053C73.374,32.147,72.063,32.09,70.917,32.118z
			 M76.605,21.617c-0.51-0.786-1.596-1.838-3.063-1.449c-1.557,0.412-2.649,2.329-2.926,4.02c-0.428,2.629,0.485,5.586,2.188,6.508
			c0.794,0.43,1.904,0.355,2.625-0.135c1.425-0.969,2.214-3.273,2.107-5.607C77.47,23.561,77.169,22.49,76.605,21.617z"/>
		<path d="M77.534,24.954c0.108,2.334-0.681,4.637-2.106,5.605c-0.722,0.49-1.831,0.566-2.625,0.135
			c-1.703-0.92-2.616-3.877-2.188-6.506c0.276-1.691,1.37-3.608,2.926-4.02c1.468-0.388,2.554,0.663,3.063,1.449
			C77.169,22.49,77.47,23.561,77.534,24.954z M77.124,23.557c-0.359-1.343-1.039-2.659-2.214-3.144
			c-0.678-0.28-1.425-0.163-1.942,0.137c-1.514,0.88-2.442,3.484-2.269,5.716c0.094,1.221,0.496,2.432,1.066,3.281
			c0.388,0.576,1.151,1.211,1.968,1.313c0.706,0.086,1.604-0.322,2.077-0.793c0.953-0.943,1.683-3.01,1.56-4.924
			C77.331,24.528,77.253,24.042,77.124,23.557z"/>
		<path fill="#FFFFFF" d="M77.37,25.145c0.124,1.914-0.606,3.979-1.558,4.922c-0.475,0.473-1.371,0.883-2.077,0.795
			c-0.819-0.104-1.582-0.736-1.97-1.313c-0.57-0.848-0.972-2.061-1.066-3.281c-0.171-2.232,0.757-4.836,2.269-5.717
			c0.517-0.301,1.264-0.417,1.942-0.137c1.175,0.486,1.856,1.801,2.215,3.145C77.253,24.042,77.331,24.528,77.37,25.145z
			 M75.128,28.729c0.026,0.41,0.73,0.371,0.63-0.109C75.67,28.2,75.102,28.34,75.128,28.729z M75.428,21.836
			c-0.395,0.012-0.425,0.678,0,0.684c0.209,0.002,0.355-0.142,0.301-0.411C75.693,21.929,75.612,21.831,75.428,21.836z
			 M74.417,26.293c-0.104-0.559,0.04-1.148,0.192-1.504c0.168-0.393,0.551-0.738,0.464-1.285c-0.128-0.805-1.202-1.024-1.914-0.738
			c-1.748,0.707-2.422,3.564-1.04,5.168c0.416,0.482,1.161,1.033,1.942,0.986c0.694-0.043,1.167-0.492,1.066-1.15
			C75.02,27.075,74.538,26.936,74.417,26.293z"/>
		<path d="M75.758,28.618c0.101,0.482-0.604,0.518-0.63,0.109C75.102,28.34,75.67,28.2,75.758,28.618z"/>
		<path d="M75.73,22.109c0.054,0.269-0.093,0.413-0.301,0.411c-0.428-0.006-0.397-0.672,0-0.684
			C75.612,21.831,75.693,21.929,75.73,22.109z"/>
		<path fill="#FFFFFF" d="M74.799,27.36c-0.211,0.172-0.691,0.172-0.737-0.109c-0.035-0.213,0.187-0.381,0.355-0.492
			C74.494,27.012,74.663,27.168,74.799,27.36z"/>
		<path fill="#FFFFFF" d="M74.745,24.133c-0.08,0.193-0.236,0.311-0.273,0.545c-0.231-0.113-0.486-0.328-0.411-0.654
			C74.315,23.938,74.551,24.073,74.745,24.133z"/>
		<path fill="#FFFFFF" d="M74.362,24.872c-0.054,0.219-0.123,0.422-0.163,0.656c-0.191-0.105-0.516-0.277-0.465-0.52
			C73.779,24.79,74.108,24.807,74.362,24.872z"/>
		<path fill="#FFFFFF" d="M74.308,26.567c-0.645,0.051-0.964-0.758-0.137-0.82C74.213,26.022,74.213,26.342,74.308,26.567z"/>
		<path fill="#FFFFFF" d="M72.531,25.829c-0.109-0.072,0.009-0.223-0.028-0.385C72.617,25.497,72.488,25.678,72.531,25.829z"/>
		<path fill="#FFFFFF" d="M71.793,27.004c-0.338-0.691-0.297-1.898,0.028-2.57C72.475,24.885,72.533,26.602,71.793,27.004z"/>
		<path d="M75.128,27.77c0.102,0.658-0.372,1.105-1.066,1.15c-0.781,0.045-1.526-0.504-1.942-0.986
			c-1.384-1.605-0.708-4.463,1.039-5.168c0.711-0.287,1.785-0.066,1.914,0.738c0.087,0.545-0.297,0.893-0.464,1.285
			c-0.153,0.355-0.297,0.945-0.191,1.502C74.538,26.936,75.02,27.075,75.128,27.77z M74.417,26.758
			c-0.168,0.111-0.39,0.279-0.355,0.492c0.046,0.281,0.526,0.281,0.739,0.109C74.663,27.168,74.494,27.012,74.417,26.758z
			 M74.062,24.024c-0.076,0.328,0.18,0.543,0.411,0.656c0.037-0.236,0.193-0.354,0.273-0.547
			C74.551,24.073,74.315,23.938,74.062,24.024z M73.733,25.008c-0.051,0.24,0.273,0.412,0.465,0.52
			c0.04-0.234,0.109-0.439,0.163-0.658C74.108,24.807,73.779,24.79,73.733,25.008z M74.171,25.747
			c-0.828,0.061-0.51,0.871,0.135,0.82C74.213,26.342,74.213,26.022,74.171,25.747z M72.503,25.444
			c0.037,0.162-0.083,0.311,0.028,0.385C72.488,25.678,72.617,25.497,72.503,25.444z M71.819,24.434
			c-0.323,0.672-0.366,1.881-0.027,2.57C72.533,26.602,72.475,24.885,71.819,24.434z"/>
	</g>
</g>
<text transform="matrix(-1 0 0 1 39.1116 6.7607)" font-family="'OCRAStd'" font-size="5">MexotroniX</text>
</svg>
