<?xml version='1.0' encoding='UTF-8' standalone='no'?>
<!-- Created with Fritzing (http://www.fritzing.org/) -->
<svg xmlns="http://www.w3.org/2000/svg" width="2.3622in" x="0in" version="1.2" y="0in"  height="0.629921in" viewBox="0 0 170.079 45.3543" baseProfile="tiny" xmlns:svg="http://www.w3.org/2000/svg">
 <g partID="417750">
  <g  id="board">
   <rect width="169.503" x="0.288" y="0.288" fill="none"  height="44.7783" stroke="black" fill-opacity="0.5" id="boardoutline" stroke-width="0.5"/>
  </g>
 </g>
 <g partID="417840">
  <g transform="translate(120.235,9.26888)">
   <g  id="copper0">
    <circle fill="black" cx="20.8462"  cy="15.6024" stroke="black" id="connector0pad" r="1.98" stroke-width="2.16"/>
    <circle fill="black" cx="2.42064"  cy="15.6024" stroke="black" id="connector1pad" r="1.98" stroke-width="2.16"/>
    <circle fill="black" cx="20.8462"  cy="2.84616" stroke="black" id="connector2pad" r="1.98" stroke-width="2.16"/>
    <circle fill="black" cx="2.42064"  cy="2.84616" stroke="black" id="connector3pad" r="1.98" stroke-width="2.16"/>
   </g>
  </g>
 </g>
 <g partID="417820">
  <g transform="translate(62.6352,9.26888)">
   <g  id="copper0">
    <circle fill="black" cx="20.8462"  cy="15.6024" stroke="black" id="connector0pad" r="1.98" stroke-width="2.16"/>
    <circle fill="black" cx="2.42064"  cy="15.6024" stroke="black" id="connector1pad" r="1.98" stroke-width="2.16"/>
    <circle fill="black" cx="20.8462"  cy="2.84616" stroke="black" id="connector2pad" r="1.98" stroke-width="2.16"/>
    <circle fill="black" cx="2.42064"  cy="2.84616" stroke="black" id="connector3pad" r="1.98" stroke-width="2.16"/>
   </g>
  </g>
 </g>
 <g partID="417790">
  <g transform="translate(5.0352,9.26888)">
   <g  id="copper0">
    <circle fill="black" cx="20.8462"  cy="15.6024" stroke="black" id="connector0pad" r="1.98" stroke-width="2.16"/>
    <circle fill="black" cx="2.42064"  cy="15.6024" stroke="black" id="connector1pad" r="1.98" stroke-width="2.16"/>
    <circle fill="black" cx="20.8462"  cy="2.84616" stroke="black" id="connector2pad" r="1.98" stroke-width="2.16"/>
    <circle fill="black" cx="2.42064"  cy="2.84616" stroke="black" id="connector3pad" r="1.98" stroke-width="2.16"/>
   </g>
  </g>
 </g>
 <g partID="417910">
  <g transform="translate(108.976,18.595)">
   <g transform="matrix(0,-1,1,0,0,0)">
    <g  id="copper0">
     <g  id="copper1">
      <circle fill="black" cx="2.88"  cy="2.88" stroke="black" id="connector0pin" r="1.8" stroke-width="2.16"/>
      <circle fill="black" cx="10.0933"  cy="2.88" stroke="black" id="connector1pin" r="1.8" stroke-width="2.16"/>
     </g>
    </g>
   </g>
  </g>
 </g>
 <g partID="417890">
  <g transform="translate(90.976,18.595)">
   <g transform="matrix(0,-1,1,0,0,0)">
    <g  id="copper0">
     <g  id="copper1">
      <circle fill="black" cx="2.88"  cy="2.88" stroke="black" id="connector0pin" r="1.8" stroke-width="2.16"/>
      <circle fill="black" cx="10.0933"  cy="2.88" stroke="black" id="connector1pin" r="1.8" stroke-width="2.16"/>
     </g>
    </g>
   </g>
  </g>
 </g>
 <g partID="417860">
  <g transform="translate(36.976,22.195)">
   <g transform="matrix(0,-1,1,0,0,0)">
    <g  id="copper0">
     <g  id="copper1">
      <circle fill="black" cx="2.88"  cy="2.88" stroke="black" id="connector0pin" r="1.8" stroke-width="2.16"/>
      <circle fill="black" cx="10.0933"  cy="2.88" stroke="black" id="connector1pin" r="1.8" stroke-width="2.16"/>
     </g>
    </g>
   </g>
  </g>
 </g>
 <g partID="418400">
  <g transform="translate(101.956,36.415)">
   <g transform="matrix(0,-1,1,0,0,0)">
    <g  id="copper0">
     <g  id="copper1">
      <!-- <rect width="55" x="10" y="10" fill="none" height="55" stroke="rgb(255, 191, 0)" stroke-width="20" /> -->
      <circle fill="black" cx="2.7"  cy="2.7" stroke="black" r="1.98" id="connector0pin" stroke-width="2.16"/>
      <circle fill="black" cx="24.3"  cy="2.7" stroke="black" r="1.98" id="connector1pin" stroke-width="2.16"/>
     </g>
    </g>
   </g>
  </g>
 </g>
 <g partID="418380">
  <g transform="translate(47.956,36.415)">
   <g transform="matrix(0,-1,1,0,0,0)">
    <g  id="copper0">
     <g  id="copper1">
      <!-- <rect width="55" x="10" y="10" fill="none" height="55" stroke="rgb(255, 191, 0)" stroke-width="20" /> -->
      <circle fill="black" cx="2.7"  cy="2.7" stroke="black" r="1.98" id="connector0pin" stroke-width="2.16"/>
      <circle fill="black" cx="24.3"  cy="2.7" stroke="black" r="1.98" id="connector1pin" stroke-width="2.16"/>
     </g>
    </g>
   </g>
  </g>
 </g>
 <g partID="418350">
  <g transform="translate(31.756,36.415)">
   <g transform="matrix(-1,0,0,-1,0,0)">
    <g  id="copper0">
     <g  id="copper1">
      <!-- <rect width="55" x="10" y="10" fill="none" height="55" stroke="rgb(255, 191, 0)" stroke-width="20" /> -->
      <circle fill="black" cx="2.7"  cy="2.7" stroke="black" r="1.98" id="connector0pin" stroke-width="2.16"/>
      <circle fill="black" cx="24.3"  cy="2.7" stroke="black" r="1.98" id="connector1pin" stroke-width="2.16"/>
     </g>
    </g>
   </g>
  </g>
 </g>
 <g partID="472970">
  <g transform="translate(163.696,38.755)">
   <g transform="matrix(-1,0,0,-1,0,0)">
    <g flipped="1" id="copper0">
     <g transform="matrix(-1, 0, 0, 1, 10.08, 0)">
      <g>
       <g>
        <g>
         <g id="copper0">
          <circle fill="black" cx="5.04" cy="5.04" stroke="black" id="connector0pin" r="2.088" stroke-width="2.16"/>
          <circle fill="black" cx="5.04" cy="12.24" stroke="black" id="connector1pin" r="2.088" stroke-width="2.16"/>
          <circle fill="black" cx="5.04" cy="19.44" stroke="black" id="connector2pin" r="2.088" stroke-width="2.16"/>
          <circle fill="black" cx="5.04" cy="26.64" stroke="black" id="connector3pin" r="2.088" stroke-width="2.16"/>
          <circle fill="black" cx="5.04" cy="33.84" stroke="black" id="connector4pin" r="2.088" stroke-width="2.16"/>
         </g>
        </g>
        <g>
         <circle fill="black" cx="5.04" cy="5.04" stroke="black" id="connector0pin" r="2.088" stroke-width="2.16"/>
         <circle fill="black" cx="5.04" cy="12.24" stroke="black" id="connector1pin" r="2.088" stroke-width="2.16"/>
         <circle fill="black" cx="5.04" cy="19.44" stroke="black" id="connector2pin" r="2.088" stroke-width="2.16"/>
         <circle fill="black" cx="5.04" cy="26.64" stroke="black" id="connector3pin" r="2.088" stroke-width="2.16"/>
         <circle fill="black" cx="5.04" cy="33.84" stroke="black" id="connector4pin" r="2.088" stroke-width="2.16"/>
        </g>
       </g>
      </g>
     </g>
    </g>
   </g>
  </g>
 </g>
</svg>
