<?xml version='1.0' encoding='UTF-8' standalone='no'?>
<!-- Created with Fritzing (http://www.fritzing.org/) -->
<svg xmlns="http://www.w3.org/2000/svg" width="2.3622in" x="0in" version="1.2" y="0in"  height="0.629921in" viewBox="0 0 170.079 45.3543" baseProfile="tiny" xmlns:svg="http://www.w3.org/2000/svg">
 <g transform="matrix(-1, 0, 0, 1, 170.079, 0)">
  <g partID="417750">
   <g  id="board">
    <rect width="169.503" x="0.288" y="0.288" fill="none"  height="44.7783" stroke="black" fill-opacity="0.5" id="boardoutline" stroke-width="0.5"/>
   </g>
  </g>
  <g partID="417840">
   <g transform="translate(120.235,9.26888)">
    <g  id="copper0">
     <circle fill="none" cx="20.8462"  cy="15.6024" stroke="black" id="connector0pad" r="1.98" stroke-width="1.44"/>
     <circle fill="none" cx="2.42064"  cy="15.6024" stroke="black" id="connector1pad" r="1.98" stroke-width="1.44"/>
     <circle fill="none" cx="20.8462"  cy="2.84616" stroke="black" id="connector2pad" r="1.98" stroke-width="1.44"/>
     <circle fill="none" cx="2.42064"  cy="2.84616" stroke="black" id="connector3pad" r="1.98" stroke-width="1.44"/>
    </g>
   </g>
  </g>
  <g partID="417820">
   <g transform="translate(62.6352,9.26888)">
    <g  id="copper0">
     <circle fill="none" cx="20.8462"  cy="15.6024" stroke="black" id="connector0pad" r="1.98" stroke-width="1.44"/>
     <circle fill="none" cx="2.42064"  cy="15.6024" stroke="black" id="connector1pad" r="1.98" stroke-width="1.44"/>
     <circle fill="none" cx="20.8462"  cy="2.84616" stroke="black" id="connector2pad" r="1.98" stroke-width="1.44"/>
     <circle fill="none" cx="2.42064"  cy="2.84616" stroke="black" id="connector3pad" r="1.98" stroke-width="1.44"/>
    </g>
   </g>
  </g>
  <g partID="417790">
   <g transform="translate(5.0352,9.26888)">
    <g  id="copper0">
     <circle fill="none" cx="20.8462"  cy="15.6024" stroke="black" id="connector0pad" r="1.98" stroke-width="1.44"/>
     <circle fill="none" cx="2.42064"  cy="15.6024" stroke="black" id="connector1pad" r="1.98" stroke-width="1.44"/>
     <circle fill="none" cx="20.8462"  cy="2.84616" stroke="black" id="connector2pad" r="1.98" stroke-width="1.44"/>
     <circle fill="none" cx="2.42064"  cy="2.84616" stroke="black" id="connector3pad" r="1.98" stroke-width="1.44"/>
    </g>
   </g>
  </g>
  <g partID="417910">
   <g transform="translate(108.976,18.595)">
    <g transform="matrix(0,-1,1,0,0,0)">
     <g  id="copper0">
      <g  id="copper1">
       <circle fill="none" cx="2.88"  cy="2.88" stroke="black" id="connector0pin" r="1.8" stroke-width="1.44"/>
       <circle fill="none" cx="10.0933"  cy="2.88" stroke="black" id="connector1pin" r="1.8" stroke-width="1.44"/>
      </g>
     </g>
    </g>
   </g>
  </g>
  <g partID="417890">
   <g transform="translate(90.976,18.595)">
    <g transform="matrix(0,-1,1,0,0,0)">
     <g  id="copper0">
      <g  id="copper1">
       <circle fill="none" cx="2.88"  cy="2.88" stroke="black" id="connector0pin" r="1.8" stroke-width="1.44"/>
       <circle fill="none" cx="10.0933"  cy="2.88" stroke="black" id="connector1pin" r="1.8" stroke-width="1.44"/>
      </g>
     </g>
    </g>
   </g>
  </g>
  <g partID="417860">
   <g transform="translate(36.976,22.195)">
    <g transform="matrix(0,-1,1,0,0,0)">
     <g  id="copper0">
      <g  id="copper1">
       <circle fill="none" cx="2.88"  cy="2.88" stroke="black" id="connector0pin" r="1.8" stroke-width="1.44"/>
       <circle fill="none" cx="10.0933"  cy="2.88" stroke="black" id="connector1pin" r="1.8" stroke-width="1.44"/>
      </g>
     </g>
    </g>
   </g>
  </g>
  <g partID="418400">
   <g transform="translate(101.956,36.415)">
    <g transform="matrix(0,-1,1,0,0,0)">
     <g  id="copper0">
      <g  id="copper1">
       <!-- <rect width="55" x="10" y="10" fill="none" height="55" stroke="rgb(255, 191, 0)" stroke-width="20" /> -->
       <circle fill="none" cx="2.7"  cy="2.7" stroke="black" r="1.98" id="connector0pin" stroke-width="1.44"/>
       <circle fill="none" cx="24.3"  cy="2.7" stroke="black" r="1.98" id="connector1pin" stroke-width="1.44"/>
      </g>
     </g>
    </g>
   </g>
  </g>
  <g partID="418380">
   <g transform="translate(47.956,36.415)">
    <g transform="matrix(0,-1,1,0,0,0)">
     <g  id="copper0">
      <g  id="copper1">
       <!-- <rect width="55" x="10" y="10" fill="none" height="55" stroke="rgb(255, 191, 0)" stroke-width="20" /> -->
       <circle fill="none" cx="2.7"  cy="2.7" stroke="black" r="1.98" id="connector0pin" stroke-width="1.44"/>
       <circle fill="none" cx="24.3"  cy="2.7" stroke="black" r="1.98" id="connector1pin" stroke-width="1.44"/>
      </g>
     </g>
    </g>
   </g>
  </g>
  <g partID="418350">
   <g transform="translate(31.756,36.415)">
    <g transform="matrix(-1,0,0,-1,0,0)">
     <g  id="copper0">
      <g  id="copper1">
       <!-- <rect width="55" x="10" y="10" fill="none" height="55" stroke="rgb(255, 191, 0)" stroke-width="20" /> -->
       <circle fill="none" cx="2.7"  cy="2.7" stroke="black" r="1.98" id="connector0pin" stroke-width="1.44"/>
       <circle fill="none" cx="24.3"  cy="2.7" stroke="black" r="1.98" id="connector1pin" stroke-width="1.44"/>
      </g>
     </g>
    </g>
   </g>
  </g>
  <g partID="472970">
   <g transform="translate(163.696,38.755)">
    <g transform="matrix(-1,0,0,-1,0,0)">
     <g flipped="1" id="copper0">
      <g transform="matrix(-1, 0, 0, 1, 10.08, 0)">
       <g>
        <g>
         <g>
          <g id="copper0">
           <circle fill="none" cx="5.04" cy="5.04" stroke="black" id="connector0pin" r="2.088" stroke-width="1.44"/>
           <circle fill="none" cx="5.04" cy="12.24" stroke="black" id="connector1pin" r="2.088" stroke-width="1.44"/>
           <circle fill="none" cx="5.04" cy="19.44" stroke="black" id="connector2pin" r="2.088" stroke-width="1.44"/>
           <circle fill="none" cx="5.04" cy="26.64" stroke="black" id="connector3pin" r="2.088" stroke-width="1.44"/>
           <circle fill="none" cx="5.04" cy="33.84" stroke="black" id="connector4pin" r="2.088" stroke-width="1.44"/>
          </g>
         </g>
         <g>
          <circle fill="none" cx="5.04" cy="5.04" stroke="black" id="connector0pin" r="2.088" stroke-width="1.44"/>
          <circle fill="none" cx="5.04" cy="12.24" stroke="black" id="connector1pin" r="2.088" stroke-width="1.44"/>
          <circle fill="none" cx="5.04" cy="19.44" stroke="black" id="connector2pin" r="2.088" stroke-width="1.44"/>
          <circle fill="none" cx="5.04" cy="26.64" stroke="black" id="connector3pin" r="2.088" stroke-width="1.44"/>
          <circle fill="none" cx="5.04" cy="33.84" stroke="black" id="connector4pin" r="2.088" stroke-width="1.44"/>
         </g>
        </g>
       </g>
      </g>
     </g>
    </g>
   </g>
  </g>
  <g partID="456310">
   <line stroke="black" stroke-linecap="round" y1="10.059" x1="83.3536" y2="4.88166" stroke-width="1.728" x2="83.0312"/>
  </g>
  <g partID="456770">
   <line stroke="black" stroke-linecap="round" y1="12.1035" x1="37.976" y2="12.113" stroke-width="1.728" x2="27.9415"/>
  </g>
  <g partID="457870">
   <line stroke="black" stroke-linecap="round" y1="40.941" x1="14.708" y2="40.941" stroke-width="1.728" x2="162.224"/>
  </g>
  <g partID="457740">
   <line stroke="black" stroke-linecap="round" y1="40.941" x1="162.224" y2="37.3178" stroke-width="1.728" x2="165.847"/>
  </g>
  <g partID="457610">
   <line stroke="black" stroke-linecap="round" y1="37.3178" x1="165.847" y2="15.7512" stroke-width="1.728" x2="165.847"/>
  </g>
  <g partID="457440">
   <line stroke="black" stroke-linecap="round" y1="15.7513" x1="165.847" y2="12.1281" stroke-width="1.728" x2="162.224"/>
  </g>
  <g partID="457310">
   <line stroke="black" stroke-linecap="round" y1="12.1281" x1="162.224" y2="12.123" stroke-width="1.728" x2="160.824"/>
  </g>
  <g partID="457180">
   <line stroke="black" stroke-linecap="round" y1="35.1691" x1="8.91526" y2="40.9411" stroke-width="1.728" x2="14.708"/>
  </g>
  <g partID="459390">
   <line stroke="black" stroke-linecap="round" y1="31.655" x1="7.456" y2="26.9313" stroke-width="1.728" x2="7.456"/>
  </g>
  <g partID="472760">
   <line stroke="black" stroke-linecap="round" y1="26.4483" x1="61.4648" y2="25.6995" stroke-width="1.728" x2="63.1701"/>
  </g>
  <g partID="468670">
   <line stroke="black" stroke-linecap="round" y1="26.4483" x1="57.8416" y2="26.4483" stroke-width="1.728" x2="61.4648"/>
  </g>
  <g partID="468580">
   <line stroke="black" stroke-linecap="round" y1="19.3744" x1="50.5952" y2="26.4483" stroke-width="1.728" x2="57.8416"/>
  </g>
  <g partID="460180">
   <line stroke="black" stroke-linecap="round" y1="14.175" x1="50.6387" y2="19.3744" stroke-width="1.728" x2="50.5949"/>
  </g>
  <g partID="466410">
   <line stroke="black" stroke-linecap="round" y1="19.3744" x1="32.6512" y2="19.3305" stroke-width="1.728" x2="37.9758"/>
  </g>
  <g partID="460670">
   <line stroke="black" stroke-linecap="round" y1="23.5728" x1="27.4808" y2="19.3744" stroke-width="1.728" x2="32.6515"/>
  </g>
  <g partID="470170">
   <line stroke="black" stroke-linecap="round" y1="26.4483" x1="111.844" y2="30.0715" stroke-width="1.728" x2="115.467"/>
  </g>
  <g partID="470080">
   <line stroke="black" stroke-linecap="round" y1="26.4483" x1="129.787" y2="22.9977" stroke-width="1.728" x2="129.787"/>
  </g>
  <g partID="467840">
   <line stroke="black" stroke-linecap="round" y1="19.3744" x1="133.41" y2="19.3201" stroke-width="1.728" x2="156.488"/>
  </g>
  <g partID="467660">
   <line stroke="black" stroke-linecap="round" y1="22.9976" x1="129.787" y2="19.3744" stroke-width="1.728" x2="133.41"/>
  </g>
  <g partID="467570">
   <line stroke="black" stroke-linecap="round" y1="30.0714" x1="126.337" y2="26.4482" stroke-width="1.728" x2="129.787"/>
  </g>
  <g partID="467480">
   <line stroke="black" stroke-linecap="round" y1="30.0714" x1="115.467" y2="30.0714" stroke-width="1.728" x2="126.337"/>
  </g>
  <g partID="462100">
   <line stroke="black" stroke-linecap="round" y1="26.4483" x1="93.9008" y2="26.4483" stroke-width="1.728" x2="111.844"/>
  </g>
  <g partID="461740">
   <line stroke="black" stroke-linecap="round" y1="17.595" x1="93.8638" y2="26.4483" stroke-width="1.728" x2="93.9007"/>
  </g>
  <g partID="464040">
   <line stroke="black" stroke-linecap="round" y1="11.4614" x1="120.702" y2="9.09819" stroke-width="1.728" x2="113.639"/>
  </g>
  <g partID="472520">
   <line stroke="black" stroke-linecap="round" y1="4.88168" x1="147.903" y2="10.6164" stroke-width="1.728" x2="142.495"/>
  </g>
  <g partID="464230">
   <line stroke="black" stroke-linecap="round" y1="4.90831" x1="156.488" y2="4.88166" stroke-width="1.728" x2="147.904"/>
  </g>
  <g partID="465650">
   <line stroke="black" stroke-linecap="round" y1="33.715" x1="31.116" y2="33.715" stroke-width="1.728" x2="48.596"/>
  </g>
  <g partID="469990">
   <line stroke="black" stroke-linecap="round" y1="37.3178" x1="100.974" y2="35.1558" stroke-width="1.728" x2="103.184"/>
  </g>
  <g partID="469900">
   <line stroke="black" stroke-linecap="round" y1="37.3178" x1="54.2184" y2="37.3178" stroke-width="1.728" x2="100.975"/>
  </g>
  <g partID="465780">
   <line stroke="black" stroke-linecap="round" y1="35.1799" x1="52.1043" y2="37.3179" stroke-width="1.728" x2="54.2181"/>
  </g>
  <g partID="471300">
   <line stroke="black" stroke-linecap="round" y1="15.7513" x1="108.221" y2="13.5861" stroke-width="1.728" x2="106.098"/>
  </g>
  <g partID="465970">
   <line stroke="black" stroke-linecap="round" y1="15.7338" x1="109.976" y2="15.7512" stroke-width="1.728" x2="108.221"/>
  </g>
  <g partID="466590">
   <line stroke="black" stroke-linecap="round" y1="19.3744" x1="111.844" y2="17.595" stroke-width="1.728" x2="111.85"/>
  </g>
  <g partID="466100">
   <line stroke="black" stroke-linecap="round" y1="23.9377" x1="120.82" y2="19.3744" stroke-width="1.728" x2="111.844"/>
  </g>
  <g partID="470590">
   <line stroke="black" stroke-linecap="round" y1="33.6946" x1="133.41" y2="33.7133" stroke-width="1.728" x2="156.488"/>
  </g>
  <g partID="470500">
   <line stroke="black" stroke-linecap="round" y1="37.3178" x1="129.787" y2="33.6946" stroke-width="1.728" x2="133.41"/>
  </g>
  <g partID="470410">
   <line stroke="black" stroke-linecap="round" y1="37.3178" x1="108.221" y2="37.3178" stroke-width="1.728" x2="129.787"/>
  </g>
  <g partID="466230">
   <line stroke="black" stroke-linecap="round" y1="35.1794" x1="106.105" y2="37.3179" stroke-width="1.728" x2="108.221"/>
  </g>
  <g partID="467010">
   <line stroke="black" stroke-linecap="round" y1="26.4483" x1="144.28" y2="26.505" stroke-width="1.728" x2="156.488"/>
  </g>
  <g partID="466920">
   <line stroke="black" stroke-linecap="round" y1="25.7822" x1="142.929" y2="26.4483" stroke-width="1.728" x2="144.28"/>
  </g>
  <g partID="470260">
   <line stroke="black" stroke-linecap="round" y1="4.88168" x1="46.972" y2="10.7627" stroke-width="1.728" x2="41.1759"/>
  </g>
  <g partID="469440">
   <line stroke="black" stroke-linecap="round" y1="4.88168" x1="65.088" y2="4.88168" stroke-width="1.728" x2="46.972"/>
  </g>
  <g partID="468990">
   <line stroke="black" stroke-linecap="round" y1="4.88168" x1="83.0312" y2="4.88168" stroke-width="1.728" x2="65.0878"/>
  </g>
  <g partID="469750">
   <line stroke="black" stroke-linecap="round" y1="4.88168" x1="65.088" y2="10.0551" stroke-width="1.728" x2="65.0654"/>
  </g>
  <g partID="472670">
   <line stroke="black" stroke-linecap="round" y1="26.4483" x1="86.6544" y2="25.7882" stroke-width="1.728" x2="85.3263"/>
  </g>
  <g partID="471510">
   <line stroke="black" stroke-linecap="round" y1="26.4483" x1="93.9008" y2="26.4483" stroke-width="1.728" x2="86.6544"/>
  </g>
  <g partID="472200">
   <line stroke="black" stroke-linecap="round" y1="4.88168" x1="93.9008" y2="4.88168" stroke-width="1.728" x2="108.221"/>
  </g>
  <g partID="472030">
   <line stroke="black" stroke-linecap="round" y1="4.88168" x1="108.221" y2="7.17512" stroke-width="1.728" x2="110.524"/>
  </g>
  <g partID="471740">
   <line stroke="black" stroke-linecap="round" y1="4.88168" x1="83.0312" y2="4.88168" stroke-width="1.728" x2="93.9008"/>
  </g>
  <g partID="472370">
   <line stroke="black" stroke-linecap="round" y1="4.88168" x1="93.9008" y2="6.62186" stroke-width="1.728" x2="93.8793"/>
  </g>
 </g>
</svg>
