<?xml version='1.0' encoding='UTF-8' standalone='no'?>
<!-- Created with Fritzing (http://www.fritzing.org/) -->
<svg xmlns="http://www.w3.org/2000/svg" width="0.590551in" x="0in" version="1.2" y="0in"  height="1.5748in" viewBox="0 0 42.5197 113.386" baseProfile="tiny" xmlns:svg="http://www.w3.org/2000/svg">
 <g transform="matrix(-1, 0, 0, 1, 42.5197, 0)">
  <g partID="473701">
   <g id="silkscreen0">
    <rect width="41.9437" x="0.288" y="0.288" fill="none" height="112.81" stroke="black" stroke-width="0.576"/>
   </g>
  </g>
  <g partID="473700">
   <g id="board">
    <rect width="41.9437" x="0.288" y="0.288" fill="none" height="112.81" stroke="black" fill-opacity="0.5" id="boardoutline" stroke-width="0.5"/>
   </g>
  </g>
  <g partID="473701">
   <g id="silkscreen0">
    <rect width="41.9437" x="0.288" y="0.288" fill="none" height="112.81" stroke="black" stroke-width="0.576"/>
   </g>
  </g>
  <g partID="482141">
   <g transform="translate(2.96,43.36)">
    <g flipped="1" id="silkscreen0">
     <g transform="matrix(-1, 0, 0, 1, 10.08, 0)">
      <g>
       <g>
        <g>
         <line stroke="black" y1="1.44" stroke-width="0.72" x1="1.44" y2="30.24" x2="1.44"/>
         <line stroke="black" y1="30.24" stroke-width="0.72" x1="1.44" y2="30.24" x2="8.64"/>
         <line stroke="black" y1="30.24" stroke-width="0.72" x1="8.64" y2="1.44" x2="8.64"/>
         <line stroke="black" y1="1.44" stroke-width="0.72" x1="8.64" y2="1.44" x2="1.44"/>
         <line stroke="black" y1="3.96" stroke-width="0.36" x1="1.44" y2="1.44" x2="3.96"/>
         <!-- 120 -->
        </g>
       </g>
      </g>
     </g>
    </g>
   </g>
  </g>
  <g partID="473820">
   <g transform="translate(39.5,108.7)">
    <g transform="matrix(-1,0,0,-1,0,0)">
     <g id="copper0">
      <g id="copper1">
       <!-- <rect width="55" x="10" y="10" fill="none" height="55" stroke="rgb(255, 191, 0)" stroke-width="20" /> -->
       <circle fill="white" cx="2.7" cy="2.7" stroke="white" r="1.98" id="connector0pin" stroke-width="2.16"/>
       <circle fill="white" cx="24.3" cy="2.7" stroke="white" r="1.98" id="connector1pin" stroke-width="2.16"/>
      </g>
     </g>
    </g>
   </g>
  </g>
  <g partID="473800">
   <g transform="translate(39.5,72.7)">
    <g transform="matrix(-1,0,0,-1,0,0)">
     <g id="copper0">
      <g id="copper1">
       <!-- <rect width="55" x="10" y="10" fill="none" height="55" stroke="rgb(255, 191, 0)" stroke-width="20" /> -->
       <circle fill="white" cx="2.7" cy="2.7" stroke="white" r="1.98" id="connector0pin" stroke-width="2.16"/>
       <circle fill="white" cx="24.3" cy="2.7" stroke="white" r="1.98" id="connector1pin" stroke-width="2.16"/>
      </g>
     </g>
    </g>
   </g>
  </g>
  <g partID="473770">
   <g transform="translate(12.5,36.7)">
    <g transform="matrix(0,-1,1,0,0,0)">
     <g id="copper0">
      <g id="copper1">
       <!-- <rect width="55" x="10" y="10" fill="none" height="55" stroke="rgb(255, 191, 0)" stroke-width="20" /> -->
       <circle fill="white" cx="2.7" cy="2.7" stroke="white" r="1.98" id="connector0pin" stroke-width="2.16"/>
       <circle fill="white" cx="24.3" cy="2.7" stroke="white" r="1.98" id="connector1pin" stroke-width="2.16"/>
      </g>
     </g>
    </g>
   </g>
  </g>
  <g partID="473930">
   <g transform="translate(34.7872,102.346)">
    <g transform="matrix(-1,0,0,-1,0,0)">
     <g id="copper0">
      <g id="copper1">
       <circle fill="white" cx="8.7872" cy="10.6336" stroke="white" id="connector1pad" r="1.7008" stroke-width="1.85384"/>
       <rect width="3.4016" x="7.0864" y="8.9328" fill="white" height="3.4016" stroke="white" stroke-width="1.85384"/>
       <circle fill="white" cx="8.7872" cy="3.5464" stroke="white" id="connector0pad" r="1.7008" stroke-width="1.85384"/>
      </g>
     </g>
    </g>
   </g>
  </g>
  <g partID="473910">
   <g transform="translate(34.7872,62.7464)">
    <g transform="matrix(-1,0,0,-1,0,0)">
     <g id="copper0">
      <g id="copper1">
       <circle fill="white" cx="8.7872" cy="10.6336" stroke="white" id="connector1pad" r="1.7008" stroke-width="1.85384"/>
       <rect width="3.4016" x="7.0864" y="8.9328" fill="white" height="3.4016" stroke="white" stroke-width="1.85384"/>
       <circle fill="white" cx="8.7872" cy="3.5464" stroke="white" id="connector0pad" r="1.7008" stroke-width="1.85384"/>
      </g>
     </g>
    </g>
   </g>
  </g>
  <g partID="473890">
   <g transform="translate(17.2128,8.8536)">
    <g id="copper0">
     <g id="copper1">
      <circle fill="white" cx="8.7872" cy="10.6336" stroke="white" id="connector1pad" r="1.7008" stroke-width="1.85384"/>
      <rect width="3.4016" x="7.0864" y="8.9328" fill="white" height="3.4016" stroke="white" stroke-width="1.85384"/>
      <circle fill="white" cx="8.7872" cy="3.5464" stroke="white" id="connector0pad" r="1.7008" stroke-width="1.85384"/>
     </g>
    </g>
   </g>
  </g>
  <g partID="482140">
   <g transform="translate(2.96,43.36)">
    <g flipped="1" id="copper0">
     <g transform="matrix(-1, 0, 0, 1, 10.08, 0)">
      <g>
       <g>
        <g>
         <g id="copper0">
          <circle fill="white" cx="5.04" cy="5.04" stroke="white" id="connector0pin" r="2.088" stroke-width="2.16"/>
          <circle fill="white" cx="5.04" cy="12.24" stroke="white" id="connector1pin" r="2.088" stroke-width="2.16"/>
          <circle fill="white" cx="5.04" cy="19.44" stroke="white" id="connector2pin" r="2.088" stroke-width="2.16"/>
          <circle fill="white" cx="5.04" cy="26.64" stroke="white" id="connector3pin" r="2.088" stroke-width="2.16"/>
         </g>
        </g>
        <g>
         <circle fill="white" cx="5.04" cy="5.04" stroke="white" id="connector0pin" r="2.088" stroke-width="2.16"/>
         <circle fill="white" cx="5.04" cy="12.24" stroke="white" id="connector1pin" r="2.088" stroke-width="2.16"/>
         <circle fill="white" cx="5.04" cy="19.44" stroke="white" id="connector2pin" r="2.088" stroke-width="2.16"/>
         <circle fill="white" cx="5.04" cy="26.64" stroke="white" id="connector3pin" r="2.088" stroke-width="2.16"/>
        </g>
       </g>
      </g>
     </g>
    </g>
   </g>
  </g>
 </g>
</svg>
