<?xml version='1.0' encoding='UTF-8' standalone='no'?>
<!-- Created with Fritzing (http://www.fritzing.org/) -->
<svg xmlns="http://www.w3.org/2000/svg" width="4.13386in" x="0in" version="1.2" y="0in"  height="2.04724in" viewBox="0 0 297.638 147.402" baseProfile="tiny" xmlns:svg="http://www.w3.org/2000/svg">
 <g transform="matrix(-1, 0, 0, 1, 297.638, 0)">
  <g partID="204320">
   <g  id="board">
    <rect width="297.062" x="0.288" y="0.288" fill="none"  height="146.826" stroke="black" fill-opacity="0.5" id="boardoutline" stroke-width="0.5"/>
   </g>
  </g>
  <g partID="362591">
   <g transform="translate(186.848,97.648)">
    <g  id="copper1">
     <circle fill="black" cx="19.152"  cy="26.352" stroke="black" r="1.98" id="connector0pad" stroke-width="2.16"/>
     <circle fill="black" cx="4.752"  cy="4.752" stroke="black" r="1.98" id="connector1pad" stroke-width="2.16"/>
    </g>
   </g>
  </g>
  <g partID="364621">
   <g transform="translate(172.448,65.248)">
    <g  id="copper1">
     <circle fill="black" cx="4.752"  cy="33.552" stroke="black" r="1.98" id="connector0pad" stroke-width="2.16"/>
     <circle fill="black" cx="33.552"  cy="4.752" stroke="black" r="1.98" id="connector1pad" stroke-width="2.16"/>
    </g>
   </g>
  </g>
  <g partID="371871">
   <g transform="translate(230.048,94.048)">
    <g  id="copper1">
     <circle fill="black" cx="4.752"  cy="4.752" stroke="black" r="1.98" id="connector0pad" stroke-width="2.16"/>
     <circle fill="black" cx="33.552"  cy="11.952" stroke="black" r="1.98" id="connector1pad" stroke-width="2.16"/>
    </g>
   </g>
  </g>
  <g partID="372271">
   <g transform="translate(226.448,130.048)">
    <g  id="copper1">
     <circle fill="black" cx="4.752"  cy="4.752" stroke="black" r="1.98" id="connector0pad" stroke-width="2.16"/>
     <circle fill="black" cx="37.152"  cy="4.752" stroke="black" r="1.98" id="connector1pad" stroke-width="2.16"/>
    </g>
   </g>
  </g>
  <g partID="394751">
   <g transform="translate(233.648,-31.952)">
    <g  id="copper1">
     <circle fill="black" cx="4.752"  cy="4.752" stroke="black" r="1.98" id="connector0pad" stroke-width="2.16"/>
     <circle fill="black" cx="47.952"  cy="73.152" stroke="black" r="1.98" id="connector1pad" stroke-width="2.16"/>
    </g>
   </g>
  </g>
  <g partID="394901">
   <g transform="translate(230.048,-53.552)">
    <g  id="copper1">
     <circle fill="black" cx="22.752"  cy="91.152" stroke="black" r="1.98" id="connector0pad" stroke-width="2.16"/>
     <circle fill="black" cx="4.752"  cy="4.752" stroke="black" r="1.98" id="connector1pad" stroke-width="2.16"/>
    </g>
   </g>
  </g>
  <g partID="401521">
   <g transform="translate(212.048,14.848)">
    <g  id="copper1">
     <circle fill="black" cx="15.552"  cy="4.752" stroke="black" r="1.98" id="connector0pad" stroke-width="2.16"/>
     <circle fill="black" cx="4.752"  cy="62.352" stroke="black" r="1.98" id="connector1pad" stroke-width="2.16"/>
    </g>
   </g>
  </g>
  <g partID="405271">
   <g transform="translate(222.848,108.448)">
    <g  id="copper1">
     <circle fill="black" cx="4.752"  cy="19.152" stroke="black" r="1.98" id="connector0pad" stroke-width="2.16"/>
     <circle fill="black" cx="47.952"  cy="4.752" stroke="black" r="1.98" id="connector1pad" stroke-width="2.16"/>
    </g>
   </g>
  </g>
  <g partID="407851">
   <g transform="translate(35.648,-46.352)">
    <g  id="copper1">
     <circle fill="black" cx="4.752"  cy="130.752" stroke="black" r="1.98" id="connector0pad" stroke-width="2.16"/>
     <circle fill="black" cx="188.352"  cy="4.752" stroke="black" r="1.98" id="connector1pad" stroke-width="2.16"/>
    </g>
   </g>
  </g>
  <g partID="408421">
   <g transform="translate(32.048,0.448)">
    <g  id="copper1">
     <circle fill="black" cx="4.752"  cy="4.752" stroke="black" r="1.98" id="connector0pad" stroke-width="2.16"/>
     <circle fill="black" cx="235.152"  cy="4.752" stroke="black" r="1.98" id="connector1pad" stroke-width="2.16"/>
    </g>
   </g>
  </g>
  <g partID="409111">
   <g transform="translate(104.048,108.448)">
    <g  id="copper1">
     <circle fill="black" cx="166.752"  cy="11.952" stroke="black" r="1.98" id="connector0pad" stroke-width="2.16"/>
     <circle fill="black" cx="4.752"  cy="4.752" stroke="black" r="1.98" id="connector1pad" stroke-width="2.16"/>
    </g>
   </g>
  </g>
  <g partID="417011">
   <g transform="translate(-14.752,97.648)">
    <g  id="copper1">
     <circle fill="black" cx="4.752"  cy="4.752" stroke="black" r="1.98" id="connector0pad" stroke-width="2.16"/>
     <circle fill="black" cx="44.352"  cy="40.752" stroke="black" r="1.98" id="connector1pad" stroke-width="2.16"/>
    </g>
   </g>
  </g>
  <g partID="330561">
   <g transform="translate(201.248,86.848)">
    <g  id="copper1">
     <circle fill="black" cx="4.752"  cy="55.152" stroke="black" r="1.98" id="connector0pad" stroke-width="2.16"/>
     <circle fill="black" cx="11.952"  cy="4.752" stroke="black" r="1.98" id="connector1pad" stroke-width="2.16"/>
    </g>
   </g>
  </g>
  <g partID="265261">
   <g transform="translate(132.848,101.248)">
    <g  id="copper1">
     <circle fill="black" cx="4.752"  cy="40.752" stroke="black" r="1.98" id="connector0pad" stroke-width="2.16"/>
     <circle fill="black" cx="44.352"  cy="4.752" stroke="black" r="1.98" id="connector1pad" stroke-width="2.16"/>
    </g>
   </g>
  </g>
  <g partID="293291">
   <g transform="translate(154.448,14.848)">
    <g  id="copper1">
     <circle fill="black" cx="4.752"  cy="4.752" stroke="black" r="1.98" id="connector0pad" stroke-width="2.16"/>
     <circle fill="black" cx="22.752"  cy="33.552" stroke="black" r="1.98" id="connector1pad" stroke-width="2.16"/>
    </g>
   </g>
  </g>
  <g partID="246371">
   <g transform="translate(208.448,94.048)">
    <g  id="copper1">
     <circle fill="black" cx="4.752"  cy="8.352" stroke="black" r="1.98" id="connector0pad" stroke-width="2.16"/>
     <circle fill="black" cx="47.952"  cy="4.752" stroke="black" r="1.98" id="connector1pad" stroke-width="2.16"/>
    </g>
   </g>
  </g>
  <g partID="170771">
   <g transform="translate(118.16,60.64)">
    <g transform="matrix(0,-1,1,0,0,0)">
     <g  id="copper1">
      <g  id="copper0">
       <circle fill="black" cx="5.04"  cy="5.04" stroke="black" id="connector0pin" r="2.088" stroke-width="2.16"/>
       <circle fill="black" cx="5.04"  cy="12.24" stroke="black" id="connector1pin" r="2.088" stroke-width="2.16"/>
       <circle fill="black" cx="5.04"  cy="19.44" stroke="black" id="connector2pin" r="2.088" stroke-width="2.16"/>
       <circle fill="black" cx="5.04"  cy="26.64" stroke="black" id="connector3pin" r="2.088" stroke-width="2.16"/>
       <circle fill="black" cx="5.04"  cy="33.84" stroke="black" id="connector4pin" r="2.088" stroke-width="2.16"/>
       <circle fill="black" cx="5.04"  cy="41.04" stroke="black" id="connector5pin" r="2.088" stroke-width="2.16"/>
       <circle fill="black" cx="5.04"  cy="48.24" stroke="black" id="connector6pin" r="2.088" stroke-width="2.16"/>
       <circle fill="black" cx="5.04"  cy="55.44" stroke="black" id="connector7pin" r="2.088" stroke-width="2.16"/>
      </g>
     </g>
    </g>
   </g>
  </g>
  <g partID="170351">
   <g transform="translate(118.16,31.84)">
    <g transform="matrix(0,-1,1,0,0,0)">
     <g  id="copper1">
      <g  id="copper0">
       <circle fill="black" cx="5.04"  cy="5.04" stroke="black" id="connector0pin" r="2.088" stroke-width="2.16"/>
       <circle fill="black" cx="5.04"  cy="12.24" stroke="black" id="connector1pin" r="2.088" stroke-width="2.16"/>
       <circle fill="black" cx="5.04"  cy="19.44" stroke="black" id="connector2pin" r="2.088" stroke-width="2.16"/>
       <circle fill="black" cx="5.04"  cy="26.64" stroke="black" id="connector3pin" r="2.088" stroke-width="2.16"/>
       <circle fill="black" cx="5.04"  cy="33.84" stroke="black" id="connector4pin" r="2.088" stroke-width="2.16"/>
       <circle fill="black" cx="5.04"  cy="41.04" stroke="black" id="connector5pin" r="2.088" stroke-width="2.16"/>
       <circle fill="black" cx="5.04"  cy="48.24" stroke="black" id="connector6pin" r="2.088" stroke-width="2.16"/>
       <circle fill="black" cx="5.04"  cy="55.44" stroke="black" id="connector7pin" r="2.088" stroke-width="2.16"/>
      </g>
     </g>
    </g>
   </g>
  </g>
  <g partID="137051">
   <g transform="translate(62.0536,39.1872)">
    <g transform="matrix(0,-1,1,0,0,0)">
     <g  id="copper1">
      <circle fill="black" cx="8.7872"  cy="10.6336" stroke="black" id="connector1pad" r="1.7008" stroke-width="1.85384"/>
      <rect width="3.4016" x="7.0864" y="8.9328" fill="black"  height="3.4016" stroke="black" stroke-width="1.85384"/>
      <circle fill="black" cx="8.7872"  cy="3.5464" stroke="black" id="connector0pad" r="1.7008" stroke-width="1.85384"/>
     </g>
    </g>
   </g>
  </g>
  <g partID="419321">
   <g transform="translate(243.44,147.04)">
    <g transform="matrix(-1,0,0,-1,0,0)">
     <g  id="copper1">
      <g  id="copper0">
       <circle fill="black" cx="5.04"  cy="5.04" stroke="black" id="connector0pin" r="2.088" stroke-width="2.16"/>
       <circle fill="black" cx="5.04"  cy="12.24" stroke="black" id="connector1pin" r="2.088" stroke-width="2.16"/>
       <circle fill="black" cx="5.04"  cy="19.44" stroke="black" id="connector2pin" r="2.088" stroke-width="2.16"/>
       <circle fill="black" cx="5.04"  cy="26.64" stroke="black" id="connector3pin" r="2.088" stroke-width="2.16"/>
       <circle fill="black" cx="5.04"  cy="33.84" stroke="black" id="connector4pin" r="2.088" stroke-width="2.16"/>
      </g>
     </g>
    </g>
   </g>
  </g>
  <g partID="94181">
   <g transform="translate(53.9,101.5)">
    <g transform="matrix(-1,0,0,-1,0,0)">
     <g  id="copper1">
      <!-- <rect width="55" x="10" y="10" fill="none" height="55" stroke="rgb(255, 191, 0)" stroke-width="20" /> -->
      <circle fill="black" cx="2.7"  cy="2.7" stroke="black" r="1.98" id="connector0pin" stroke-width="2.16"/>
      <circle fill="black" cx="24.3"  cy="2.7" stroke="black" r="1.98" id="connector1pin" stroke-width="2.16"/>
     </g>
    </g>
   </g>
  </g>
  <g partID="93691">
   <g transform="translate(165.696,140.108)">
    <g transform="matrix(0.896974,-0.442083,0.442083,0.896974,0,0)">
     <g  id="copper1">
      <g  id="copper0">
       <rect width="4.464" x="0.72" y="1.368" fill="black"  height="4.464" stroke="black" stroke-width="2.16"/>
       <circle fill="black" cx="3.024"  cy="3.6" stroke="black" id="connector0pin" r="2.232" stroke-width="2.16"/>
       <circle fill="black" cx="24.48"  cy="3.6" stroke="black" id="connector1pin" r="2.232" stroke-width="2.16"/>
      </g>
     </g>
    </g>
   </g>
  </g>
  <g partID="93681">
   <g transform="translate(50.3,18.7)">
    <g transform="matrix(-1,-2.77556e-16,2.77556e-16,-1,0,0)">
     <g  id="copper1">
      <!-- <rect width="55" x="10" y="10" fill="none" height="55" stroke="rgb(255, 191, 0)" stroke-width="20" /> -->
      <circle fill="black" cx="2.7"  cy="2.7" stroke="black" r="1.98" id="connector0pin" stroke-width="2.16"/>
      <circle fill="black" cx="24.3"  cy="2.7" stroke="black" r="1.98" id="connector1pin" stroke-width="2.16"/>
     </g>
    </g>
   </g>
  </g>
  <g partID="93671">
   <g transform="translate(10.7,67.3)">
    <g transform="matrix(5.55112e-17,1,-1,5.55112e-17,0,0)">
     <g  id="copper1">
      <!-- <rect width="55" x="10" y="10" fill="none" height="55" stroke="rgb(255, 191, 0)" stroke-width="20" /> -->
      <circle fill="black" cx="2.7"  cy="2.7" stroke="black" r="1.98" id="connector0pin" stroke-width="2.16"/>
      <circle fill="black" cx="24.3"  cy="2.7" stroke="black" r="1.98" id="connector1pin" stroke-width="2.16"/>
     </g>
    </g>
   </g>
  </g>
  <g partID="91281">
   <g transform="translate(115.1,123.496)">
    <g transform="matrix(-1,0,0,-1,0,0)">
     <g  id="copper1">
      <!-- <rect width="55" x="10" y="15.5" fill="none" height="55" stroke="rgb(255, 191, 0)" stroke-width="20" />  -->
      <circle fill="black" cx="2.7"  cy="3.096" stroke="black" r="1.98" id="connector0pin" stroke-width="2.16"/>
      <circle fill="black" cx="31.5"  cy="3.096" stroke="black" r="1.98" id="connector1pin" stroke-width="2.16"/>
     </g>
    </g>
   </g>
  </g>
  <g partID="91061">
   <g transform="translate(33.2,32.992)">
    <g  id="copper1">
     <g  id="copper0">
      <rect width="3.96" x="16.02" y="6.228" fill="black"  height="3.96" stroke="black" id="rect10" stroke-width="2.16"/>
      <circle fill="black" cx="3.6"  cy="8.208" stroke="black" id="connector0pin" r="1.98" stroke-width="2.16"/>
      <circle fill="black" cx="10.8"  cy="8.208" stroke="black" id="connector1pin" r="1.98" stroke-width="2.16"/>
      <circle fill="black" cx="18"  cy="8.208" stroke="black" id="connector2pin" r="1.98" stroke-width="2.16"/>
     </g>
    </g>
   </g>
  </g>
  <g partID="86911">
   <g transform="translate(141.2,120.618)">
    <g transform="matrix(-0.707107,-0.707107,0.707107,-0.707107,0,0)">
     <g  id="copper1">
      <!-- <rect width="55" x="10" y="10" fill="none" height="55" stroke="rgb(255, 191, 0)" stroke-width="20" /> -->
      <circle fill="black" cx="2.7"  cy="2.7" stroke="black" r="1.98" id="connector0pin" stroke-width="2.16"/>
      <circle fill="black" cx="24.3"  cy="2.7" stroke="black" r="1.98" id="connector1pin" stroke-width="2.16"/>
     </g>
    </g>
   </g>
  </g>
  <g partID="86811">
   <g transform="translate(150.992,116.8)">
    <g transform="matrix(0,-1,1,0,0,0)">
     <g  id="copper1">
      <g  id="copper0">
       <rect width="3.96" x="16.02" y="6.228" fill="black"  height="3.96" stroke="black" id="rect10" stroke-width="2.16"/>
       <circle fill="black" cx="3.6"  cy="8.208" stroke="black" id="connector0pin" r="1.98" stroke-width="2.16"/>
       <circle fill="black" cx="10.8"  cy="8.208" stroke="black" id="connector1pin" r="1.98" stroke-width="2.16"/>
       <circle fill="black" cx="18"  cy="8.208" stroke="black" id="connector2pin" r="1.98" stroke-width="2.16"/>
      </g>
     </g>
    </g>
   </g>
  </g>
  <g partID="86721">
   <g transform="translate(68.192,80.8)">
    <g transform="matrix(0,-1,1,0,0,0)">
     <g  id="copper1">
      <g  id="copper0">
       <rect width="3.96" x="16.02" y="6.228" fill="black"  height="3.96" stroke="black" id="rect10" stroke-width="2.16"/>
       <circle fill="black" cx="3.6"  cy="8.208" stroke="black" id="connector0pin" r="1.98" stroke-width="2.16"/>
       <circle fill="black" cx="10.8"  cy="8.208" stroke="black" id="connector1pin" r="1.98" stroke-width="2.16"/>
       <circle fill="black" cx="18"  cy="8.208" stroke="black" id="connector2pin" r="1.98" stroke-width="2.16"/>
      </g>
     </g>
    </g>
   </g>
  </g>
  <g partID="85281">
   <g transform="translate(208.7,51.1)">
    <g transform="matrix(-1,0,0,-1,0,0)">
     <g  id="copper1">
      <!-- <rect width="55" x="10" y="10" fill="none" height="55" stroke="rgb(255, 191, 0)" stroke-width="20" /> -->
      <circle fill="black" cx="2.7"  cy="2.7" stroke="black" r="1.98" id="connector0pin" stroke-width="2.16"/>
      <circle fill="black" cx="24.3"  cy="2.7" stroke="black" r="1.98" id="connector1pin" stroke-width="2.16"/>
     </g>
    </g>
   </g>
  </g>
  <g partID="85261">
   <g transform="translate(208.7,43.9)">
    <g transform="matrix(-1,0,0,-1,0,0)">
     <g  id="copper1">
      <!-- <rect width="55" x="10" y="10" fill="none" height="55" stroke="rgb(255, 191, 0)" stroke-width="20" /> -->
      <circle fill="black" cx="2.7"  cy="2.7" stroke="black" r="1.98" id="connector0pin" stroke-width="2.16"/>
      <circle fill="black" cx="24.3"  cy="2.7" stroke="black" r="1.98" id="connector1pin" stroke-width="2.16"/>
     </g>
    </g>
   </g>
  </g>
  <g partID="85241">
   <g transform="translate(208.7,36.7)">
    <g transform="matrix(-1,0,0,-1,0,0)">
     <g  id="copper1">
      <!-- <rect width="55" x="10" y="10" fill="none" height="55" stroke="rgb(255, 191, 0)" stroke-width="20" /> -->
      <circle fill="black" cx="2.7"  cy="2.7" stroke="black" r="1.98" id="connector0pin" stroke-width="2.16"/>
      <circle fill="black" cx="24.3"  cy="2.7" stroke="black" r="1.98" id="connector1pin" stroke-width="2.16"/>
     </g>
    </g>
   </g>
  </g>
  <g partID="85201">
   <g transform="translate(240.668,15.4722)">
    <g transform="matrix(-0.988833,-0.149026,0.149026,-0.988833,0,0)">
     <g  id="copper1">
      <!-- <rect width="55" x="10" y="10" fill="none" height="55" stroke="rgb(255, 191, 0)" stroke-width="20" /> -->
      <circle fill="black" cx="2.7"  cy="2.7" stroke="black" r="1.98" id="connector0pin" stroke-width="2.16"/>
      <circle fill="black" cx="24.3"  cy="2.7" stroke="black" r="1.98" id="connector1pin" stroke-width="2.16"/>
     </g>
    </g>
   </g>
  </g>
  <g partID="65291">
   <g transform="translate(245.6,52)">
    <g  id="copper1">
     <g  id="copper0">
      <circle fill="black" cx="43.2"  cy="3.6" stroke="black" id="connector14pad" r="2.052" stroke-width="1.944"/>
      <circle fill="black" cx="36"  cy="3.6" stroke="black" id="connector15pad" r="2.052" stroke-width="1.944"/>
      <circle fill="black" cx="28.8"  cy="3.6" stroke="black" id="connector16pad" r="2.052" stroke-width="1.944"/>
      <circle fill="black" cx="21.6"  cy="3.6" stroke="black" id="connector17pad" r="2.052" stroke-width="1.944"/>
      <circle fill="black" cx="14.4"  cy="3.6" stroke="black" id="connector18pad" r="2.052" stroke-width="1.944"/>
      <circle fill="black" cx="7.2"  cy="3.6" stroke="black" id="connector19pad" r="2.052" stroke-width="1.944"/>
      <circle fill="black" cx="46.8"  cy="10.8" stroke="black" id="connector25pad" r="2.052" stroke-width="1.944"/>
      <circle fill="black" cx="46.8"  cy="18" stroke="black" id="connector26pad" r="2.052" stroke-width="1.944"/>
      <circle fill="black" cx="46.8"  cy="25.2" stroke="black" id="connector27pad" r="2.052" stroke-width="1.944"/>
      <circle fill="black" cx="46.8"  cy="32.4" stroke="black" id="connector28pad" r="2.052" stroke-width="1.944"/>
      <circle fill="black" cx="46.8"  cy="39.6" stroke="black" id="connector29pad" r="2.052" stroke-width="1.944"/>
      <circle fill="black" cx="38.519"  cy="35.64" stroke="black" id="connector21pad" r="2.052" stroke-width="1.944"/>
      <circle fill="black" cx="38.519"  cy="42.84" stroke="black" id="connector20pad" r="2.052" stroke-width="1.944"/>
      <circle fill="black" cx="46.8"  cy="46.8" stroke="black" id="connector30pad" r="2.052" stroke-width="1.944"/>
      <circle fill="black" cx="46.8"  cy="54" stroke="black" id="connector31pad" r="2.052" stroke-width="1.944"/>
      <circle fill="black" cx="46.8"  cy="61.2" stroke="black" id="connector32pad" r="2.052" stroke-width="1.944"/>
      <circle fill="black" cx="46.8"  cy="68.4" stroke="black" id="connector33pad" r="2.052" stroke-width="1.944"/>
      <circle fill="black" cx="46.8"  cy="75.6" stroke="black" id="connector34pad" r="2.052" stroke-width="1.944"/>
      <circle fill="black" cx="46.8"  cy="82.8" stroke="black" id="connector35pad" r="2.052" stroke-width="1.944"/>
      <circle fill="black" cx="46.8"  cy="90" stroke="black" id="connector36pad" r="2.052" stroke-width="1.944"/>
      <circle fill="black" cx="3.6"  cy="90" stroke="black" id="connector37pad" r="2.052" stroke-width="1.944"/>
      <circle fill="black" cx="3.6"  cy="82.8" stroke="black" id="connector38pad" r="2.052" stroke-width="1.944"/>
      <circle fill="black" cx="3.6"  cy="75.6" stroke="black" id="connector39pad" r="2.052" stroke-width="1.944"/>
      <circle fill="black" cx="3.6"  cy="68.4" stroke="black" id="connector40pad" r="2.052" stroke-width="1.944"/>
      <circle fill="black" cx="3.6"  cy="61.2" stroke="black" id="connector41pad" r="2.052" stroke-width="1.944"/>
      <circle fill="black" cx="3.6"  cy="54" stroke="black" id="connector42pad" r="2.052" stroke-width="1.944"/>
      <circle fill="black" cx="3.6"  cy="46.8" stroke="black" id="connector43pad" r="2.052" stroke-width="1.944"/>
      <circle fill="black" cx="3.6"  cy="39.6" stroke="black" id="connector44pad" r="2.052" stroke-width="1.944"/>
      <circle fill="black" cx="3.6"  cy="32.4" stroke="black" id="connector45pad" r="2.052" stroke-width="1.944"/>
      <circle fill="black" cx="3.6"  cy="25.2" stroke="black" id="connector46pad" r="2.052" stroke-width="1.944"/>
      <circle fill="black" cx="3.6"  cy="18" stroke="black" id="connector47pad" r="2.052" stroke-width="1.944"/>
      <circle fill="black" cx="3.6"  cy="10.8" stroke="black" id="connector48pad" r="2.052" stroke-width="1.944"/>
     </g>
    </g>
   </g>
  </g>
  <g partID="19771">
   <g transform="translate(194.48,80.08)">
    <g  id="copper1">
     <g  id="copper0">
      <rect width="3.96" x="2.34" y="2.34" fill="black"  height="3.96" stroke="black" id="square" stroke-width="2.16"/>
      <circle fill="black" cx="4.32"  cy="4.32" stroke="black" id="connector0pin" r="1.98" stroke-width="2.16"/>
      <circle fill="black" cx="25.92"  cy="4.32" stroke="black" id="connector15pin" r="1.98" stroke-width="2.16"/>
      <circle fill="black" cx="4.32"  cy="11.52" stroke="black" id="connector1pin" r="1.98" stroke-width="2.16"/>
      <circle fill="black" cx="25.92"  cy="11.52" stroke="black" id="connector14pin" r="1.98" stroke-width="2.16"/>
      <circle fill="black" cx="4.32"  cy="18.72" stroke="black" id="connector2pin" r="1.98" stroke-width="2.16"/>
      <circle fill="black" cx="25.92"  cy="18.72" stroke="black" id="connector13pin" r="1.98" stroke-width="2.16"/>
      <circle fill="black" cx="4.32"  cy="25.92" stroke="black" id="connector3pin" r="1.98" stroke-width="2.16"/>
      <circle fill="black" cx="25.92"  cy="25.92" stroke="black" id="connector12pin" r="1.98" stroke-width="2.16"/>
      <circle fill="black" cx="4.32"  cy="33.12" stroke="black" id="connector4pin" r="1.98" stroke-width="2.16"/>
      <circle fill="black" cx="25.92"  cy="33.12" stroke="black" id="connector11pin" r="1.98" stroke-width="2.16"/>
      <circle fill="black" cx="4.32"  cy="40.32" stroke="black" id="connector5pin" r="1.98" stroke-width="2.16"/>
      <circle fill="black" cx="25.92"  cy="40.32" stroke="black" id="connector10pin" r="1.98" stroke-width="2.16"/>
      <circle fill="black" cx="4.32"  cy="47.52" stroke="black" id="connector6pin" r="1.98" stroke-width="2.16"/>
      <circle fill="black" cx="25.92"  cy="47.52" stroke="black" id="connector9pin" r="1.98" stroke-width="2.16"/>
      <circle fill="black" cx="4.32"  cy="54.72" stroke="black" id="connector7pin" r="1.98" stroke-width="2.16"/>
      <circle fill="black" cx="25.92"  cy="54.72" stroke="black" id="connector8pin" r="1.98" stroke-width="2.16"/>
     </g>
    </g>
   </g>
  </g>
  <g partID="246831">
   <g transform="translate(222.848,50.848)">
    <g  id="copper1">
     <circle fill="black" cx="47.952"  cy="11.952" stroke="black" r="1.98" id="connector0pad" stroke-width="2.16"/>
     <circle fill="black" cx="4.752"  cy="4.752" stroke="black" r="1.98" id="connector1pad" stroke-width="2.16"/>
    </g>
   </g>
  </g>
  <g partID="94161">
   <g transform="translate(71.9,133.9)">
    <g transform="matrix(-1,0,0,-1,0,0)">
     <g  id="copper1">
      <!-- <rect width="55" x="10" y="10" fill="none" height="55" stroke="rgb(255, 191, 0)" stroke-width="20" /> -->
      <circle fill="black" cx="2.7"  cy="2.7" stroke="black" r="1.98" id="connector0pin" stroke-width="2.16"/>
      <circle fill="black" cx="24.3"  cy="2.7" stroke="black" r="1.98" id="connector1pin" stroke-width="2.16"/>
     </g>
    </g>
   </g>
  </g>
  <g partID="93651">
   <g transform="translate(11.6,76.192)">
    <g  id="copper1">
     <g  id="copper0">
      <rect width="3.96" x="16.02" y="6.228" fill="black"  height="3.96" stroke="black" id="rect10" stroke-width="2.16"/>
      <circle fill="black" cx="3.6"  cy="8.208" stroke="black" id="connector0pin" r="1.98" stroke-width="2.16"/>
      <circle fill="black" cx="10.8"  cy="8.208" stroke="black" id="connector1pin" r="1.98" stroke-width="2.16"/>
      <circle fill="black" cx="18"  cy="8.208" stroke="black" id="connector2pin" r="1.98" stroke-width="2.16"/>
     </g>
    </g>
   </g>
  </g>
  <g partID="86871">
   <g transform="translate(111.5,72.7)">
    <g transform="matrix(-1,0,0,-1,0,0)">
     <g  id="copper1">
      <!-- <rect width="55" x="10" y="10" fill="none" height="55" stroke="rgb(255, 191, 0)" stroke-width="20" /> -->
      <circle fill="black" cx="2.7"  cy="2.7" stroke="black" r="1.98" id="connector0pin" stroke-width="2.16"/>
      <circle fill="black" cx="24.3"  cy="2.7" stroke="black" r="1.98" id="connector1pin" stroke-width="2.16"/>
     </g>
    </g>
   </g>
  </g>
  <g partID="85221">
   <g transform="translate(208.7,22.3)">
    <g transform="matrix(-1,0,0,-1,0,0)">
     <g  id="copper1">
      <!-- <rect width="55" x="10" y="10" fill="none" height="55" stroke="rgb(255, 191, 0)" stroke-width="20" /> -->
      <circle fill="black" cx="2.7"  cy="2.7" stroke="black" r="1.98" id="connector0pin" stroke-width="2.16"/>
      <circle fill="black" cx="24.3"  cy="2.7" stroke="black" r="1.98" id="connector1pin" stroke-width="2.16"/>
     </g>
    </g>
   </g>
  </g>
  <g partID="85151">
   <g transform="translate(208.7,29.5)">
    <g transform="matrix(-1,0,0,-1,0,0)">
     <g  id="copper1">
      <!-- <rect width="55" x="10" y="10" fill="none" height="55" stroke="rgb(255, 191, 0)" stroke-width="20" /> -->
      <circle fill="black" cx="2.7"  cy="2.7" stroke="black" r="1.98" id="connector0pin" stroke-width="2.16"/>
      <circle fill="black" cx="24.3"  cy="2.7" stroke="black" r="1.98" id="connector1pin" stroke-width="2.16"/>
     </g>
    </g>
   </g>
  </g>
  <g partID="65451">
   <g transform="translate(266.48,23.92)">
    <g transform="matrix(0,1,-1,0,0,0)">
     <g  id="copper1">
      <circle fill="black" cx="2.88"  cy="2.88" stroke="black" id="connector0pin" r="1.8" stroke-width="2.16"/>
      <circle fill="black" cx="10.0933"  cy="2.88" stroke="black" id="connector1pin" r="1.8" stroke-width="2.16"/>
     </g>
    </g>
   </g>
  </g>
  <g partID="19741">
   <g transform="translate(208.88,15.28)">
    <g  id="copper1">
     <g  id="copper0">
      <rect width="3.96" x="2.34" y="2.34" fill="black"  height="3.96" stroke="black" id="square" stroke-width="2.16"/>
      <circle fill="black" cx="4.32"  cy="4.32" stroke="black" id="connector0pin" r="1.98" stroke-width="2.16"/>
      <circle fill="black" cx="25.92"  cy="4.32" stroke="black" id="connector15pin" r="1.98" stroke-width="2.16"/>
      <circle fill="black" cx="4.32"  cy="11.52" stroke="black" id="connector1pin" r="1.98" stroke-width="2.16"/>
      <circle fill="black" cx="25.92"  cy="11.52" stroke="black" id="connector14pin" r="1.98" stroke-width="2.16"/>
      <circle fill="black" cx="4.32"  cy="18.72" stroke="black" id="connector2pin" r="1.98" stroke-width="2.16"/>
      <circle fill="black" cx="25.92"  cy="18.72" stroke="black" id="connector13pin" r="1.98" stroke-width="2.16"/>
      <circle fill="black" cx="4.32"  cy="25.92" stroke="black" id="connector3pin" r="1.98" stroke-width="2.16"/>
      <circle fill="black" cx="25.92"  cy="25.92" stroke="black" id="connector12pin" r="1.98" stroke-width="2.16"/>
      <circle fill="black" cx="4.32"  cy="33.12" stroke="black" id="connector4pin" r="1.98" stroke-width="2.16"/>
      <circle fill="black" cx="25.92"  cy="33.12" stroke="black" id="connector11pin" r="1.98" stroke-width="2.16"/>
      <circle fill="black" cx="4.32"  cy="40.32" stroke="black" id="connector5pin" r="1.98" stroke-width="2.16"/>
      <circle fill="black" cx="25.92"  cy="40.32" stroke="black" id="connector10pin" r="1.98" stroke-width="2.16"/>
      <circle fill="black" cx="4.32"  cy="47.52" stroke="black" id="connector6pin" r="1.98" stroke-width="2.16"/>
      <circle fill="black" cx="25.92"  cy="47.52" stroke="black" id="connector9pin" r="1.98" stroke-width="2.16"/>
      <circle fill="black" cx="4.32"  cy="54.72" stroke="black" id="connector7pin" r="1.98" stroke-width="2.16"/>
      <circle fill="black" cx="25.92"  cy="54.72" stroke="black" id="connector8pin" r="1.98" stroke-width="2.16"/>
     </g>
    </g>
   </g>
  </g>
  <g partID="94141">
   <g transform="translate(45.008,120.4)">
    <g transform="matrix(0,1,-1,0,0,0)">
     <g  id="copper1">
      <g  id="copper0">
       <rect width="3.96" x="16.02" y="6.228" fill="black"  height="3.96" stroke="black" id="rect10" stroke-width="2.16"/>
       <circle fill="black" cx="3.6"  cy="8.208" stroke="black" id="connector0pin" r="1.98" stroke-width="2.16"/>
       <circle fill="black" cx="10.8"  cy="8.208" stroke="black" id="connector1pin" r="1.98" stroke-width="2.16"/>
       <circle fill="black" cx="18"  cy="8.208" stroke="black" id="connector2pin" r="1.98" stroke-width="2.16"/>
      </g>
     </g>
    </g>
   </g>
  </g>
  <g partID="91381">
   <g transform="translate(152.576,120.4)">
    <g transform="matrix(1,-5.55112e-17,5.55112e-17,1,0,0)">
     <g  id="copper1">
      <g  id="copper0">
       <rect width="4.464" x="0.72" y="1.368" fill="black"  height="4.464" stroke="black" stroke-width="2.16"/>
       <circle fill="black" cx="3.024"  cy="3.6" stroke="black" id="connector0pin" r="2.232" stroke-width="2.16"/>
       <circle fill="black" cx="24.48"  cy="3.6" stroke="black" id="connector1pin" r="2.232" stroke-width="2.16"/>
      </g>
     </g>
    </g>
   </g>
  </g>
  <g partID="86891">
   <g transform="translate(172.7,88.9)">
    <g transform="matrix(0,1,-1,0,0,0)">
     <g  id="copper1">
      <!-- <rect width="55" x="10" y="10" fill="none" height="55" stroke="rgb(255, 191, 0)" stroke-width="20" /> -->
      <circle fill="black" cx="2.7"  cy="2.7" stroke="black" r="1.98" id="connector0pin" stroke-width="2.16"/>
      <circle fill="black" cx="24.3"  cy="2.7" stroke="black" r="1.98" id="connector1pin" stroke-width="2.16"/>
     </g>
    </g>
   </g>
  </g>
  <g partID="85301">
   <g transform="translate(208.7,58.3)">
    <g transform="matrix(-1,0,0,-1,0,0)">
     <g  id="copper1">
      <!-- <rect width="55" x="10" y="10" fill="none" height="55" stroke="rgb(255, 191, 0)" stroke-width="20" /> -->
      <circle fill="black" cx="2.7"  cy="2.7" stroke="black" r="1.98" id="connector0pin" stroke-width="2.16"/>
      <circle fill="black" cx="24.3"  cy="2.7" stroke="black" r="1.98" id="connector1pin" stroke-width="2.16"/>
     </g>
    </g>
   </g>
  </g>
  <g partID="65011">
   <g transform="translate(294.56,-13.16)">
    <g transform="matrix(0,1,-1,0,0,0)">
     <g  id="copper1">
      <g  id="copper0">
       <circle fill="black" cx="39.24"  cy="12.96" stroke="black" id="connector0pin" r="4.32" stroke-width="2.16"/>
       <circle fill="black" cx="21.96"  cy="12.96" stroke="black" id="connector1pin" r="4.32" stroke-width="2.16"/>
       <circle fill="black" cx="30.6"  cy="26.64" stroke="black" id="connector2pin" r="4.32" stroke-width="2.16"/>
      </g>
     </g>
    </g>
   </g>
  </g>
  <g partID="290061">
   <g transform="translate(76.4536,39.1872)">
    <g transform="matrix(0,-1,1,0,0,0)">
     <g  id="copper1">
      <circle fill="black" cx="8.7872"  cy="10.6336" stroke="black" id="connector1pad" r="1.7008" stroke-width="1.85384"/>
      <rect width="3.4016" x="7.0864" y="8.9328" fill="black"  height="3.4016" stroke="black" stroke-width="1.85384"/>
      <circle fill="black" cx="8.7872"  cy="3.5464" stroke="black" id="connector0pad" r="1.7008" stroke-width="1.85384"/>
     </g>
    </g>
   </g>
  </g>
  <g partID="94171">
   <g transform="translate(66.176,134.8)">
    <g  id="copper1">
     <g  id="copper0">
      <rect width="4.464" x="0.72" y="1.368" fill="black"  height="4.464" stroke="black" stroke-width="2.16"/>
      <circle fill="black" cx="3.024"  cy="3.6" stroke="black" id="connector0pin" r="2.232" stroke-width="2.16"/>
      <circle fill="black" cx="24.48"  cy="3.6" stroke="black" id="connector1pin" r="2.232" stroke-width="2.16"/>
     </g>
    </g>
   </g>
  </g>
  <g partID="93061">
   <g transform="translate(32.3,31.3)">
    <g transform="matrix(-2.22045e-16,1,-1,-2.22045e-16,0,0)">
     <g  id="copper1">
      <!-- <rect width="55" x="10" y="10" fill="none" height="55" stroke="rgb(255, 191, 0)" stroke-width="20" /> -->
      <circle fill="black" cx="2.7"  cy="2.7" stroke="black" r="1.98" id="connector0pin" stroke-width="2.16"/>
      <circle fill="black" cx="24.3"  cy="2.7" stroke="black" r="1.98" id="connector1pin" stroke-width="2.16"/>
     </g>
    </g>
   </g>
  </g>
  <g partID="91091">
   <g transform="translate(46.7,76.3)">
    <g transform="matrix(-1,0,0,-1,0,0)">
     <g  id="copper1">
      <!-- <rect width="55" x="10" y="10" fill="none" height="55" stroke="rgb(255, 191, 0)" stroke-width="20" /> -->
      <circle fill="black" cx="2.7"  cy="2.7" stroke="black" r="1.98" id="connector0pin" stroke-width="2.16"/>
      <circle fill="black" cx="24.3"  cy="2.7" stroke="black" r="1.98" id="connector1pin" stroke-width="2.16"/>
     </g>
    </g>
   </g>
  </g>
  <g partID="86791">
   <g transform="translate(132.992,109.6)">
    <g transform="matrix(0,-1,1,0,0,0)">
     <g  id="copper1">
      <g  id="copper0">
       <rect width="3.96" x="16.02" y="6.228" fill="black"  height="3.96" stroke="black" id="rect10" stroke-width="2.16"/>
       <circle fill="black" cx="3.6"  cy="8.208" stroke="black" id="connector0pin" r="1.98" stroke-width="2.16"/>
       <circle fill="black" cx="10.8"  cy="8.208" stroke="black" id="connector1pin" r="1.98" stroke-width="2.16"/>
       <circle fill="black" cx="18"  cy="8.208" stroke="black" id="connector2pin" r="1.98" stroke-width="2.16"/>
      </g>
     </g>
    </g>
   </g>
  </g>
  <g partID="65421">
   <g transform="translate(270.08,44.08)">
    <g transform="matrix(-1,0,0,-1,0,0)">
     <g  id="copper1">
      <circle fill="black" cx="2.88"  cy="2.88" stroke="black" id="connector0pin" r="1.8" stroke-width="2.16"/>
      <circle fill="black" cx="10.0933"  cy="2.88" stroke="black" id="connector1pin" r="1.8" stroke-width="2.16"/>
     </g>
    </g>
   </g>
  </g>
  <g partID="268061">
   <g transform="translate(136.448,43.648)">
    <g  id="copper1">
     <circle fill="black" cx="4.752"  cy="33.552" stroke="black" r="1.98" id="connector0pad" stroke-width="2.16"/>
     <circle fill="black" cx="22.752"  cy="4.752" stroke="black" r="1.98" id="connector1pad" stroke-width="2.16"/>
    </g>
   </g>
  </g>
  <g partID="86951">
   <g transform="translate(172.7,87.1)">
    <g transform="matrix(-1,0,0,-1,0,0)">
     <g  id="copper1">
      <!-- <rect width="55" x="10" y="10" fill="none" height="55" stroke="rgb(255, 191, 0)" stroke-width="20" /> -->
      <circle fill="black" cx="2.7"  cy="2.7" stroke="black" r="1.98" id="connector0pin" stroke-width="2.16"/>
      <circle fill="black" cx="24.3"  cy="2.7" stroke="black" r="1.98" id="connector1pin" stroke-width="2.16"/>
     </g>
    </g>
   </g>
  </g>
  <g partID="86751">
   <g transform="translate(82.592,95.2)">
    <g transform="matrix(0,-1,1,0,0,0)">
     <g  id="copper1">
      <g  id="copper0">
       <rect width="3.96" x="16.02" y="6.228" fill="black"  height="3.96" stroke="black" id="rect10" stroke-width="2.16"/>
       <circle fill="black" cx="3.6"  cy="8.208" stroke="black" id="connector0pin" r="1.98" stroke-width="2.16"/>
       <circle fill="black" cx="10.8"  cy="8.208" stroke="black" id="connector1pin" r="1.98" stroke-width="2.16"/>
       <circle fill="black" cx="18"  cy="8.208" stroke="black" id="connector2pin" r="1.98" stroke-width="2.16"/>
      </g>
     </g>
    </g>
   </g>
  </g>
  <g partID="295271">
   <g transform="translate(118.448,32.848)">
    <g  id="copper1">
     <circle fill="black" cx="65.952"  cy="33.552" stroke="black" r="1.98" id="connector0pad" stroke-width="2.16"/>
     <circle fill="black" cx="4.752"  cy="4.752" stroke="black" r="1.98" id="connector1pad" stroke-width="2.16"/>
    </g>
   </g>
  </g>
  <g partID="140161">
   <g transform="translate(238.4,35.44)">
    <g transform="matrix(0,-1,1,0,0,0)">
     <g  id="copper1">
      <g  id="copper0">
       <rect width="4.464" x="6.408" y="12.168" fill="black"  height="4.464" stroke="black" stroke-width="2.16"/>
       <circle fill="black" cx="8.64"  cy="14.4" stroke="black" id="connector0pad" r="2.232" stroke-width="2.16"/>
       <circle fill="black" cx="15.84"  cy="14.4" stroke="black" id="connector1pad" r="2.232" stroke-width="2.16"/>
       <circle fill="black" cx="23.04"  cy="14.4" stroke="black" id="connector2pad" r="2.232" stroke-width="2.16"/>
      </g>
     </g>
    </g>
   </g>
  </g>
  <g partID="91031">
   <g transform="translate(11.6,54.592)">
    <g  id="copper1">
     <g  id="copper0">
      <rect width="3.96" x="16.02" y="6.228" fill="black"  height="3.96" stroke="black" id="rect10" stroke-width="2.16"/>
      <circle fill="black" cx="3.6"  cy="8.208" stroke="black" id="connector0pin" r="1.98" stroke-width="2.16"/>
      <circle fill="black" cx="10.8"  cy="8.208" stroke="black" id="connector1pin" r="1.98" stroke-width="2.16"/>
      <circle fill="black" cx="18"  cy="8.208" stroke="black" id="connector2pin" r="1.98" stroke-width="2.16"/>
     </g>
    </g>
   </g>
  </g>
  <g partID="86771">
   <g transform="translate(114.992,91.6)">
    <g transform="matrix(0,-1,1,0,0,0)">
     <g  id="copper1">
      <g  id="copper0">
       <rect width="3.96" x="16.02" y="6.228" fill="black"  height="3.96" stroke="black" id="rect10" stroke-width="2.16"/>
       <circle fill="black" cx="3.6"  cy="8.208" stroke="black" id="connector0pin" r="1.98" stroke-width="2.16"/>
       <circle fill="black" cx="10.8"  cy="8.208" stroke="black" id="connector1pin" r="1.98" stroke-width="2.16"/>
       <circle fill="black" cx="18"  cy="8.208" stroke="black" id="connector2pin" r="1.98" stroke-width="2.16"/>
      </g>
     </g>
    </g>
   </g>
  </g>
  <g partID="290081">
   <g transform="translate(76.4536,57.1872)">
    <g transform="matrix(0,-1,1,0,0,0)">
     <g  id="copper1">
      <circle fill="black" cx="8.7872"  cy="10.6336" stroke="black" id="connector1pad" r="1.7008" stroke-width="1.85384"/>
      <rect width="3.4016" x="7.0864" y="8.9328" fill="black"  height="3.4016" stroke="black" stroke-width="1.85384"/>
      <circle fill="black" cx="8.7872"  cy="3.5464" stroke="black" id="connector0pad" r="1.7008" stroke-width="1.85384"/>
     </g>
    </g>
   </g>
  </g>
  <g partID="137271">
   <g transform="translate(62.0536,57.1872)">
    <g transform="matrix(0,-1,1,0,0,0)">
     <g  id="copper1">
      <circle fill="black" cx="8.7872"  cy="10.6336" stroke="black" id="connector1pad" r="1.7008" stroke-width="1.85384"/>
      <rect width="3.4016" x="7.0864" y="8.9328" fill="black"  height="3.4016" stroke="black" stroke-width="1.85384"/>
      <circle fill="black" cx="8.7872"  cy="3.5464" stroke="black" id="connector0pad" r="1.7008" stroke-width="1.85384"/>
     </g>
    </g>
   </g>
  </g>
  <g partID="86931">
   <g transform="translate(98.9,108.7)">
    <g transform="matrix(0,-1,1,0,0,0)">
     <g  id="copper1">
      <!-- <rect width="55" x="10" y="10" fill="none" height="55" stroke="rgb(255, 191, 0)" stroke-width="20" /> -->
      <circle fill="black" cx="2.7"  cy="2.7" stroke="black" r="1.98" id="connector0pin" stroke-width="2.16"/>
      <circle fill="black" cx="24.3"  cy="2.7" stroke="black" r="1.98" id="connector1pin" stroke-width="2.16"/>
     </g>
    </g>
   </g>
  </g>
  <g partID="106821">
   <g transform="translate(179.36,93.76)">
    <g  id="copper1">
     <g  id="copper0">
      <circle fill="black" cx="5.04"  cy="5.04" stroke="black" id="connector0pin" r="2.088" stroke-width="2.16"/>
      <circle fill="black" cx="5.04"  cy="12.24" stroke="black" id="connector1pin" r="2.088" stroke-width="2.16"/>
      <circle fill="black" cx="5.04"  cy="19.44" stroke="black" id="connector2pin" r="2.088" stroke-width="2.16"/>
      <circle fill="black" cx="5.04"  cy="26.64" stroke="black" id="connector3pin" r="2.088" stroke-width="2.16"/>
     </g>
    </g>
   </g>
  </g>
  <g partID="94151">
   <g transform="translate(46.7,119.5)">
    <g transform="matrix(-1,0,0,-1,0,0)">
     <g  id="copper1">
      <!-- <rect width="55" x="10" y="10" fill="none" height="55" stroke="rgb(255, 191, 0)" stroke-width="20" /> -->
      <circle fill="black" cx="2.7"  cy="2.7" stroke="black" r="1.98" id="connector0pin" stroke-width="2.16"/>
      <circle fill="black" cx="24.3"  cy="2.7" stroke="black" r="1.98" id="connector1pin" stroke-width="2.16"/>
     </g>
    </g>
   </g>
  </g>
  <g partID="93661">
   <g transform="translate(11.6,18.592)">
    <g  id="copper1">
     <g  id="copper0">
      <rect width="3.96" x="16.02" y="6.228" fill="black"  height="3.96" stroke="black" id="rect10" stroke-width="2.16"/>
      <circle fill="black" cx="3.6"  cy="8.208" stroke="black" id="connector0pin" r="1.98" stroke-width="2.16"/>
      <circle fill="black" cx="10.8"  cy="8.208" stroke="black" id="connector1pin" r="1.98" stroke-width="2.16"/>
      <circle fill="black" cx="18"  cy="8.208" stroke="black" id="connector2pin" r="1.98" stroke-width="2.16"/>
     </g>
    </g>
   </g>
  </g>
  <g partID="94131">
   <g transform="translate(11.6,97.792)">
    <g  id="copper1">
     <g  id="copper0">
      <rect width="3.96" x="16.02" y="6.228" fill="black"  height="3.96" stroke="black" id="rect10" stroke-width="2.16"/>
      <circle fill="black" cx="3.6"  cy="8.208" stroke="black" id="connector0pin" r="1.98" stroke-width="2.16"/>
      <circle fill="black" cx="10.8"  cy="8.208" stroke="black" id="connector1pin" r="1.98" stroke-width="2.16"/>
      <circle fill="black" cx="18"  cy="8.208" stroke="black" id="connector2pin" r="1.98" stroke-width="2.16"/>
     </g>
    </g>
   </g>
  </g>
  <g partID="93701">
   <g transform="translate(8.00005,33.7816)">
    <g transform="matrix(0.707107,0.707107,-0.707107,0.707107,0,0)">
     <g  id="copper1">
      <!-- <rect width="55" x="10" y="10" fill="none" height="55" stroke="rgb(255, 191, 0)" stroke-width="20" /> -->
      <circle fill="black" cx="2.7"  cy="2.7" stroke="black" r="1.98" id="connector0pin" stroke-width="2.16"/>
      <circle fill="black" cx="24.3"  cy="2.7" stroke="black" r="1.98" id="connector1pin" stroke-width="2.16"/>
     </g>
    </g>
   </g>
  </g>
  <g partID="299351">
   <g transform="translate(-14.752,50.848)">
    <g  id="copper1">
     <circle fill="black" cx="4.752"  cy="8.352" stroke="black" r="1.98" id="connector0pad" stroke-width="2.16"/>
     <circle fill="black" cx="29.952"  cy="4.752" stroke="black" r="1.98" id="connector1pad" stroke-width="2.16"/>
    </g>
   </g>
  </g>
  <g partID="299521">
   <g transform="translate(-14.752,68.848)">
    <g  id="copper1">
     <circle fill="black" cx="4.752"  cy="4.752" stroke="black" r="1.98" id="connector0pad" stroke-width="2.16"/>
     <circle fill="black" cx="29.952"  cy="8.352" stroke="black" r="1.98" id="connector1pad" stroke-width="2.16"/>
    </g>
   </g>
  </g>
  <g partID="299671">
   <g transform="translate(-14.752,83.248)">
    <g  id="copper1">
     <circle fill="black" cx="4.752"  cy="4.752" stroke="black" r="1.98" id="connector0pad" stroke-width="2.16"/>
     <circle fill="black" cx="22.752"  cy="22.752" stroke="black" r="1.98" id="connector1pad" stroke-width="2.16"/>
    </g>
   </g>
  </g>
  <g partID="308761">
   <g transform="translate(89.648,43.648)">
    <g  id="copper1">
     <circle fill="black" cx="4.752"  cy="4.752" stroke="black" r="1.98" id="connector0pad" stroke-width="2.16"/>
     <circle fill="black" cx="55.152"  cy="4.752" stroke="black" r="1.98" id="connector1pad" stroke-width="2.16"/>
    </g>
   </g>
  </g>
  <g partID="328941">
   <g transform="translate(158.048,58.048)">
    <g  id="copper1">
     <circle fill="black" cx="4.752"  cy="33.552" stroke="black" r="1.98" id="connector0pad" stroke-width="2.16"/>
     <circle fill="black" cx="15.552"  cy="4.752" stroke="black" r="1.98" id="connector1pad" stroke-width="2.16"/>
    </g>
   </g>
  </g>
  <g partID="334891">
   <g transform="translate(237.248,36.448)">
    <g  id="copper1">
     <circle fill="black" cx="4.752"  cy="4.752" stroke="black" r="1.98" id="connector0pad" stroke-width="2.16"/>
     <circle fill="black" cx="19.152"  cy="55.152" stroke="black" r="1.98" id="connector1pad" stroke-width="2.16"/>
    </g>
   </g>
  </g>
  <g partID="336241">
   <g transform="translate(168.848,4.048)">
    <g  id="copper1">
     <circle fill="black" cx="4.752"  cy="15.552" stroke="black" r="1.98" id="connector0pad" stroke-width="2.16"/>
     <circle fill="black" cx="29.952"  cy="4.752" stroke="black" r="1.98" id="connector1pad" stroke-width="2.16"/>
    </g>
   </g>
  </g>
 </g>
</svg>
