<?xml version="1.0" encoding="utf-8"?>
<!-- Generator: Adobe Illustrator 13.0.0, SVG Export Plug-In . SVG Version: 6.00 Build 14948)  -->
<svg version="1.2" baseProfile="tiny" id="Layer_1" xmlns:svg="http://www.w3.org/2000/svg"
	 xmlns="http://www.w3.org/2000/svg" xmlns:xlink="http://www.w3.org/1999/xlink" x="0px" y="0px" width="42.52px"
	 height="113.386px" viewBox="0 0 42.52 113.386" xml:space="preserve">
<g>
	<g id="board">
		<rect id="boardoutline" x="0.288" y="0.288" fill="none" stroke="#000000" stroke-width="0.5" width="41.943" height="112.81"/>
	</g>
</g>
<g>
	<g transform="translate(39.5,108.7)">
		<g transform="matrix(-1,0,0,-1,0,0)">
			<g id="copper0">
				<g id="copper1">
					<circle id="connector0pin" fill="none" stroke="#000000" stroke-width="1.44" cx="2.699" cy="2.7" r="1.98"/>
					<circle id="connector1pin" fill="none" stroke="#000000" stroke-width="1.44" cx="24.3" cy="2.7" r="1.98"/>
				</g>
			</g>
		</g>
	</g>
</g>
<g>
	<g transform="translate(39.5,72.7)">
		<g transform="matrix(-1,0,0,-1,0,0)">
			<g id="copper0_1_">
				<g id="copper1_1_">
					<circle id="connector0pin_1_" fill="none" stroke="#000000" stroke-width="1.44" cx="2.699" cy="2.7" r="1.98"/>
					<circle id="connector1pin_1_" fill="none" stroke="#000000" stroke-width="1.44" cx="24.3" cy="2.7" r="1.98"/>
				</g>
			</g>
		</g>
	</g>
</g>
<g>
	<g transform="translate(12.5,36.7)">
		<g transform="matrix(0,-1,1,0,0,0)">
			<g id="copper0_2_">
				<g id="copper1_2_">
					<circle id="connector0pin_2_" fill="none" stroke="#000000" stroke-width="1.44" cx="2.7" cy="2.7" r="1.98"/>
					<circle id="connector1pin_2_" fill="none" stroke="#000000" stroke-width="1.44" cx="24.3" cy="2.7" r="1.98"/>
				</g>
			</g>
		</g>
	</g>
</g>
<g>
	<g transform="translate(34.7872,102.346)">
		<g transform="matrix(-1,0,0,-1,0,0)">
			<g id="copper0_3_">
				<g id="copper1_3_">
					<circle id="connector1pad" fill="none" stroke="#000000" stroke-width="1.1338" cx="8.787" cy="10.634" r="1.701"/>
					<rect x="7.086" y="8.932" fill="none" stroke="#000000" stroke-width="1.1338" width="3.402" height="3.401"/>
					<circle id="connector0pad" fill="none" stroke="#000000" stroke-width="1.1338" cx="8.787" cy="3.546" r="1.701"/>
				</g>
			</g>
		</g>
	</g>
</g>
<g>
	<g transform="translate(34.7872,62.7464)">
		<g transform="matrix(-1,0,0,-1,0,0)">
			<g id="copper0_4_">
				<g id="copper1_4_">
					<circle id="connector1pad_1_" fill="none" stroke="#000000" stroke-width="1.1338" cx="8.787" cy="10.634" r="1.701"/>
					<rect x="7.086" y="8.933" fill="none" stroke="#000000" stroke-width="1.1338" width="3.402" height="3.401"/>
					<circle id="connector0pad_1_" fill="none" stroke="#000000" stroke-width="1.1338" cx="8.787" cy="3.546" r="1.701"/>
				</g>
			</g>
		</g>
	</g>
</g>
<g>
	<g transform="translate(17.2128,8.8536)">
		<g id="copper0_5_">
			<g id="copper1_5_">
				<circle id="connector1pad_2_" fill="none" stroke="#000000" stroke-width="1.1338" cx="8.787" cy="10.633" r="1.701"/>
				<rect x="7.086" y="8.933" fill="none" stroke="#000000" stroke-width="1.1338" width="3.401" height="3.402"/>
				<circle id="connector0pad_2_" fill="none" stroke="#000000" stroke-width="1.1338" cx="8.787" cy="3.546" r="1.701"/>
			</g>
		</g>
	</g>
</g>
<g>
	<g transform="translate(2.96,43.36)">
		<g id="copper0_7_">
			<g transform="matrix(-1, 0, 0, 1, 10.08, 0)">
				<g>
					<g>
						<g>
							<g id="copper0_6_">
								<circle id="connector0pin_3_" fill="none" stroke="#000000" stroke-width="1.44" cx="5.04" cy="5.04" r="2.088"/>
								<circle id="connector1pin_3_" fill="none" stroke="#000000" stroke-width="1.44" cx="5.04" cy="12.24" r="2.088"/>
								<circle id="connector2pin" fill="none" stroke="#000000" stroke-width="1.44" cx="5.04" cy="19.44" r="2.088"/>
								<circle id="connector3pin" fill="none" stroke="#000000" stroke-width="1.44" cx="5.04" cy="26.64" r="2.088"/>
							</g>
						</g>
						<g>
							<circle id="connector0pin_4_" fill="none" stroke="#000000" stroke-width="1.44" cx="5.04" cy="5.04" r="2.088"/>
							<circle id="connector1pin_4_" fill="none" stroke="#000000" stroke-width="1.44" cx="5.04" cy="12.24" r="2.088"/>
							<circle id="connector2pin_1_" fill="none" stroke="#000000" stroke-width="1.44" cx="5.04" cy="19.44" r="2.088"/>
							<circle id="connector3pin_1_" fill="none" stroke="#000000" stroke-width="1.44" cx="5.04" cy="26.64" r="2.088"/>
						</g>
					</g>
				</g>
			</g>
		</g>
	</g>
</g>
<g>
	
		<line fill="none" stroke="#000000" stroke-width="1.728" stroke-linecap="round" x1="22.383" y1="52.019" x2="24.066" y2="52.063"/>
</g>
<g>
	
		<line fill="none" stroke="#000000" stroke-width="1.728" stroke-linecap="round" x1="11.584" y1="62.763" x2="22.382" y2="52.019"/>
</g>
<g>
	
		<line fill="none" stroke="#000000" stroke-width="1.728" stroke-linecap="round" x1="10.168" y1="62.777" x2="11.584" y2="62.763"/>
</g>
<g>
	
		<line fill="none" stroke="#000000" stroke-width="1.728" stroke-linecap="round" x1="22.471" y1="12.398" x2="24.066" y2="12.399"/>
</g>
<g>
	<line fill="none" stroke="#000000" stroke-width="1.728" stroke-linecap="round" x1="17.26" y1="12.399" x2="22.471" y2="12.398"/>
</g>
<g>
	<line fill="none" stroke="#000000" stroke-width="1.728" stroke-linecap="round" x1="7.956" y1="88.017" x2="11.584" y2="91.646"/>
</g>
<g>
	
		<line fill="none" stroke="#000000" stroke-width="1.728" stroke-linecap="round" x1="11.584" y1="91.646" x2="24.066" y2="91.705"/>
</g>
<g>
	<line fill="none" stroke="#000000" stroke-width="1.728" stroke-linecap="round" x1="7.995" y1="72.167" x2="7.956" y2="88.017"/>
</g>
<g>
	
		<line fill="none" stroke="#000000" stroke-width="1.728" stroke-linecap="round" x1="26.015" y1="41.247" x2="26.001" y2="21.421"/>
</g>
<g>
	<line fill="none" stroke="#000000" stroke-width="1.728" stroke-linecap="round" x1="11.584" y1="55.65" x2="26.014" y2="41.247"/>
</g>
<g>
	<line fill="none" stroke="#000000" stroke-width="1.728" stroke-linecap="round" x1="10.168" y1="55.63" x2="11.584" y2="55.65"/>
</g>
<g>
	<line fill="none" stroke="#000000" stroke-width="1.728" stroke-linecap="round" x1="22.383" y1="59.16" x2="24.066" y2="59.177"/>
</g>
<g>
	<line fill="none" stroke="#000000" stroke-width="1.728" stroke-linecap="round" x1="15.213" y1="66.391" x2="22.383" y2="59.16"/>
</g>
<g>
	<line fill="none" stroke="#000000" stroke-width="1.728" stroke-linecap="round" x1="15.208" y1="67.94" x2="15.213" y2="66.391"/>
</g>
<g>
	
		<line fill="none" stroke="#000000" stroke-width="1.728" stroke-linecap="round" x1="15.213" y1="102.386" x2="18.841" y2="98.757"/>
</g>
<g>
	
		<line fill="none" stroke="#000000" stroke-width="1.728" stroke-linecap="round" x1="18.842" y1="98.757" x2="24.066" y2="98.789"/>
</g>
<g>
	
		<line fill="none" stroke="#000000" stroke-width="1.728" stroke-linecap="round" x1="15.208" y1="103.94" x2="15.213" y2="102.387"/>
</g>
<g>
	<line fill="none" stroke="#000000" stroke-width="1.728" stroke-linecap="round" x1="7.956" y1="8.769" x2="7.956" y2="34.024"/>
</g>
<g>
	<line fill="none" stroke="#000000" stroke-width="1.728" stroke-linecap="round" x1="7.956" y1="34.024" x2="7.994" y2="46.232"/>
</g>
<g>
	<line fill="none" stroke="#000000" stroke-width="1.728" stroke-linecap="round" x1="11.584" y1="5.141" x2="7.956" y2="8.769"/>
</g>
<g>
	<line fill="none" stroke="#000000" stroke-width="1.728" stroke-linecap="round" x1="33.211" y1="5.141" x2="11.584" y2="5.141"/>
</g>
<g>
	<line fill="none" stroke="#000000" stroke-width="1.728" stroke-linecap="round" x1="36.84" y1="8.769" x2="33.211" y2="5.141"/>
</g>
<g>
	<line fill="none" stroke="#000000" stroke-width="1.728" stroke-linecap="round" x1="36.801" y1="67.94" x2="36.84" y2="8.769"/>
</g>
<g>
	<line fill="none" stroke="#000000" stroke-width="1.728" stroke-linecap="round" x1="7.956" y1="34.024" x2="13.14" y2="34.007"/>
</g>
<g>
	<line fill="none" stroke="#000000" stroke-width="1.728" stroke-linecap="round" x1="36.801" y1="72.06" x2="36.801" y2="103.94"/>
</g>
<g>
	<g>
		<path fill="#FFFFFF" d="M21.021,88.484c2.709-0.055,5.981-0.322,8.198-1.084c0.666-0.229,1.766-0.633,1.934-1.16
			c0.089-0.277,0.058-0.873,0.078-1.391c0.104-2.607,0.146-5.375,0.154-7.309c0.01-1.644,0.098-3.537-0.967-4.062
			c-1.369-0.672-1.765,0.974-2.049,1.854c-2.185-0.547-4.765-0.463-7.387-0.463c-2.518,0-5.132,0.318-7.271,0.619
			c-0.177-1.098-0.718-2.549-2.049-1.973c-1.283,0.555-1.13,3.098-1.044,4.949c0.121,2.594,0.147,5.594,0.271,7.811
			C13.518,87.691,17.021,88.562,21.021,88.484z"/>
		<path d="M10.89,86.279c-0.122-2.217-0.149-5.217-0.271-7.811c-0.086-1.852-0.239-4.395,1.044-4.949
			c1.331-0.576,1.873,0.875,2.049,1.973c2.138-0.301,4.753-0.619,7.271-0.619c2.622,0,5.204-0.084,7.386,0.463
			c0.286-0.883,0.682-2.526,2.049-1.854c1.065,0.522,0.977,2.418,0.967,4.062c-0.01,1.934-0.049,4.701-0.154,7.309
			c-0.021,0.518,0.013,1.113-0.076,1.391c-0.168,0.527-1.268,0.932-1.936,1.16c-2.215,0.762-5.486,1.029-8.197,1.084
			C17.021,88.562,13.518,87.691,10.89,86.279z M30.727,81.097c0-1.889,0.183-3.723,0.076-5.412c-0.041-0.672-0.17-1.725-0.811-1.818
			c-0.693-0.102-0.974,1.176-1.046,1.857c-0.122,0.125,0.279,0.053,0.271,0.191c-3.686-0.539-8.438-0.604-12.375-0.23
			c-1.37,0.129-2.678,0.465-3.943,0.309c0.222-0.029,0.183-0.139,0.192-0.309c0.04-0.592-0.439-1.672-0.928-1.703
			c-0.711-0.043-1.022,1.191-1.083,1.857c-0.07,0.789,0,1.678,0.039,2.551c0.114,2.611,0.016,5.453,0.078,7.889
			c2.365,1.221,5.998,1.818,9.628,1.855c3.732,0.039,7.426-0.277,9.859-1.623C30.65,84.89,30.727,83.037,30.727,81.097z"/>
		<path fill="#FFFFFF" d="M30.688,86.511c-2.436,1.346-6.127,1.664-9.86,1.625c-3.631-0.039-7.264-0.635-9.628-1.857
			c-0.063-2.436,0.037-5.275-0.078-7.887c-0.038-0.875-0.109-1.762-0.039-2.553c0.061-0.666,0.372-1.898,1.083-1.855
			c0.487,0.029,0.968,1.111,0.928,1.701c-0.011,0.17,0.028,0.281-0.192,0.309c1.268,0.156,2.573-0.18,3.943-0.309
			c3.938-0.371,8.69-0.309,12.374,0.232c0.01-0.142-0.395-0.066-0.27-0.193c0.071-0.682,0.352-1.957,1.043-1.855
			c0.641,0.094,0.771,1.146,0.813,1.816c0.105,1.691-0.076,3.523-0.076,5.414C30.727,83.037,30.65,84.89,30.688,86.511z
			 M15.838,78.468c-1.111,0.721-2.6,2.256-2.049,4.332c0.583,2.201,3.294,3.746,5.685,4.137c3.717,0.605,7.897-0.686,9.202-3.094
			c0.609-1.123,0.502-2.691-0.191-3.711c-1.371-2.016-4.627-3.131-7.927-2.979C18.588,77.244,17.073,77.669,15.838,78.468z"/>
		<path d="M20.557,77.154c3.3-0.152,6.556,0.963,7.927,2.979c0.693,1.021,0.802,2.589,0.191,3.711
			c-1.303,2.408-5.484,3.699-9.202,3.095C17.083,86.546,14.372,85,13.79,82.8c-0.549-2.076,0.938-3.611,2.049-4.332
			C17.073,77.669,18.588,77.244,20.557,77.154z M18.583,77.734c-1.9,0.508-3.762,1.469-4.447,3.131
			c-0.396,0.959-0.23,2.016,0.193,2.746c1.245,2.141,4.928,3.453,8.083,3.209c1.725-0.133,3.44-0.701,4.639-1.508
			c0.816-0.549,1.715-1.627,1.857-2.783c0.122-0.998-0.457-2.268-1.123-2.938c-1.334-1.348-4.255-2.379-6.959-2.205
			C19.955,77.441,19.265,77.552,18.583,77.734z"/>
		<path fill="#FFFFFF" d="M20.828,77.386c2.706-0.176,5.625,0.857,6.959,2.203c0.666,0.672,1.246,1.938,1.123,2.938
			c-0.146,1.158-1.041,2.236-1.857,2.785c-1.197,0.807-2.914,1.375-4.639,1.508c-3.155,0.242-6.837-1.07-8.083-3.209
			c-0.426-0.73-0.589-1.787-0.193-2.746c0.688-1.662,2.547-2.625,4.447-3.133C19.265,77.552,19.955,77.441,20.828,77.386z
			 M25.893,80.556c0.58-0.037,0.527-1.033-0.154-0.891C25.146,79.791,25.346,80.593,25.893,80.556z M16.148,80.132
			c0.017,0.559,0.96,0.602,0.968,0c0.003-0.297-0.201-0.502-0.58-0.426C16.279,79.757,16.142,79.873,16.148,80.132z M22.451,81.562
			c-0.79,0.146-1.624-0.057-2.126-0.271c-0.557-0.238-1.045-0.779-1.817-0.656c-1.139,0.181-1.449,1.699-1.044,2.707
			c0.999,2.472,5.039,3.425,7.308,1.47c0.683-0.588,1.461-1.642,1.394-2.746c-0.062-0.981-0.695-1.651-1.625-1.508
			C23.555,80.708,23.361,81.39,22.451,81.562z"/>
		<path d="M25.738,79.666c0.683-0.143,0.732,0.854,0.154,0.892C25.346,80.593,25.146,79.791,25.738,79.666z"/>
		<path d="M16.535,79.705c0.379-0.076,0.583,0.131,0.58,0.426c-0.008,0.604-0.951,0.562-0.968,0
			C16.142,79.873,16.279,79.757,16.535,79.705z"/>
		<path fill="#FFFFFF" d="M23.959,81.021c0.242,0.299,0.242,0.979-0.156,1.043c-0.299,0.049-0.537-0.264-0.695-0.502
			C23.465,81.453,23.688,81.214,23.959,81.021z"/>
		<path fill="#FFFFFF" d="M19.396,81.097c0.273,0.113,0.439,0.334,0.772,0.387c-0.16,0.326-0.463,0.688-0.928,0.58
			C19.12,81.707,19.311,81.373,19.396,81.097z"/>
		<path fill="#FFFFFF" d="M20.441,81.64c0.31,0.076,0.599,0.174,0.929,0.23c-0.15,0.271-0.395,0.729-0.734,0.657
			C20.325,82.464,20.349,82,20.441,81.64z"/>
		<path fill="#FFFFFF" d="M22.838,81.716c0.072,0.912-1.072,1.363-1.161,0.193C22.07,81.851,22.521,81.851,22.838,81.716z"/>
		<path fill="#FFFFFF" d="M21.793,84.23c-0.102,0.154-0.313-0.014-0.541,0.039C21.324,84.107,21.58,84.291,21.793,84.23z"/>
		<path fill="#FFFFFF" d="M23.457,85.273c-0.978,0.479-2.685,0.42-3.636-0.039C20.461,84.308,22.885,84.226,23.457,85.273z"/>
		<path d="M24.539,80.556c0.93-0.145,1.563,0.525,1.625,1.508c0.067,1.105-0.711,2.158-1.394,2.746
			c-2.27,1.957-6.31,1.002-7.308-1.469c-0.405-1.006-0.095-2.525,1.044-2.707c0.772-0.123,1.262,0.42,1.817,0.656
			c0.503,0.217,1.337,0.42,2.126,0.271C23.361,81.39,23.555,80.708,24.539,80.556z M23.109,81.562
			c0.156,0.238,0.396,0.551,0.695,0.502C24.2,82,24.2,81.32,23.958,81.019C23.688,81.214,23.465,81.453,23.109,81.562z
			 M19.242,82.064c0.464,0.107,0.768-0.254,0.928-0.58c-0.333-0.053-0.499-0.273-0.772-0.387
			C19.311,81.373,19.12,81.707,19.242,82.064z M20.633,82.529c0.341,0.072,0.584-0.387,0.734-0.658
			c-0.33-0.057-0.619-0.154-0.929-0.229C20.349,82,20.325,82.464,20.633,82.529z M21.677,81.91c0.088,1.17,1.233,0.721,1.161-0.191
			C22.521,81.851,22.07,81.851,21.677,81.91z M21.252,84.269c0.229-0.053,0.438,0.117,0.541-0.039
			C21.58,84.291,21.324,84.107,21.252,84.269z M19.822,85.236c0.951,0.457,2.659,0.518,3.636,0.039
			C22.885,84.226,20.461,84.308,19.822,85.236z"/>
	</g>
</g>
<text transform="matrix(4.489659e-011 -1 -1 -4.489659e-011 30.3381 54.4487)" font-family="'OCRAStd'" font-size="5">MexotroniX</text>
</svg>
